<svg width="169" height="169" viewBox="0 0 169 169" fill="none" xmlns="http://www.w3.org/2000/svg">
<path d="M0.00440093 51.8503C1.60194 47.1771 5.41754 46.6968 9.87568 47.1209C9.87568 46.4286 9.85808 45.9136 9.87568 45.4031C9.9857 42.3612 12.5162 40.4529 15.5309 41.2015C18.7788 42.0063 22.009 42.8717 25.2393 43.7328C26.7356 44.1309 27.5366 45.3122 27.2593 46.6146C26.9601 48.0209 25.6838 48.8776 24.1391 48.5358C21.6746 47.9949 19.2365 47.3372 16.7895 46.7314C16.213 46.5887 15.6365 46.4502 14.9543 46.2858V151.06C16.948 151.06 18.9108 151.06 20.8692 151.06C21.5293 151.06 22.1939 151.034 22.8496 151.086C24.3151 151.203 25.2657 152.138 25.2393 153.475C25.2085 154.946 24.3459 155.889 22.9156 155.941C19.8966 156.045 16.86 156.093 13.8453 155.915C11.3324 155.764 9.87568 153.89 9.87128 151.207C9.85808 143.042 9.86688 134.873 9.86688 126.708C9.86688 102.533 9.86688 78.3576 9.86688 54.1826C9.86688 53.5378 9.86688 52.8931 9.86688 52.2657C9.62923 52.1705 9.4796 52.058 9.32997 52.0537C4.09726 51.8287 4.99065 52.1013 4.98625 55.9393C4.97305 89.5776 4.97745 123.216 4.97745 156.854C4.97745 159.424 5.06987 159.515 7.65321 159.52C27.673 159.52 47.6972 159.52 67.7171 159.52C68.32 159.52 68.9185 159.52 69.6667 159.52V156.002C68.9361 156.002 68.2848 156.002 67.629 156.002C56.904 156.002 46.1789 156.002 35.4495 155.993C34.7981 155.993 34.1116 155.971 33.5043 155.781C32.3072 155.405 31.7527 154.487 31.8671 153.276C31.9815 152.064 32.6989 151.29 33.9532 151.121C34.5473 151.039 35.159 151.065 35.7663 151.065C50.4522 151.065 65.1381 151.065 79.824 151.065H81.8528V75.0864C79.3443 76.2114 76.8842 76.8735 74.9874 78.2754C72.6593 79.9932 70.7537 82.2866 68.7909 84.4414C68.4432 84.8265 68.4432 85.8996 68.7293 86.4059C73.6759 95.034 68.3288 105.142 58.2727 105.484C48.441 105.817 38.5829 105.67 28.7425 105.514C23.6242 105.432 19.5929 101.979 18.5235 97.3532C17.4321 92.6411 19.5005 88.1756 23.9983 85.5491C24.1875 85.441 24.4604 85.389 24.566 85.2289C25.9523 83.1303 27.8799 81.1788 28.5972 78.8725C31.9859 67.9382 37.7908 58.5961 46.4914 51.0065C46.641 50.8767 46.751 50.695 47.1119 50.258C43.8332 50.258 40.8406 50.258 37.848 50.258C37.4079 50.258 36.9634 50.258 36.5321 50.2017C35.0226 49.9983 34.0852 48.9382 34.1688 47.5752C34.2568 46.2036 35.2734 45.3079 36.8534 45.3122C39.714 45.3122 42.5746 45.4247 45.4308 45.3684C47.8469 45.3208 50.2806 45.2473 52.6703 44.9184C54.2546 44.7021 55.8742 44.2175 57.3001 43.5035C76.739 33.7764 96.0194 33.9841 115.207 44.2001C116.127 44.6891 117.249 44.9574 118.306 45.0482C129.885 46.0391 141.243 44.9011 152.356 41.526C156.633 40.2279 158.961 41.8462 159.138 46.2079C159.146 46.4156 159.186 46.6233 159.243 47.0473C163.433 46.7834 167.416 47.0733 169 51.8503V159.918C167.477 163.384 164.757 164.522 160.99 164.5C140.447 164.4 119.908 164.448 99.3641 164.461C98.6688 164.461 97.7842 164.383 97.3133 164.751C94.3911 167.01 91.0596 168.277 87.4728 169H81.5316C78.4201 168.286 75.4319 167.334 72.7517 165.512C71.8803 164.92 70.6833 164.496 69.6359 164.491C49.0923 164.431 28.5532 164.396 8.00969 164.491C4.24689 164.509 1.52272 163.379 0 159.909V51.8503H0.00440093ZM124.41 50.3402C124.551 50.7123 124.555 50.7772 124.59 50.8118C134.497 59.6563 141.151 70.331 143.571 83.3943C143.783 84.5236 144.416 85.2203 145.442 85.8477C149.411 88.2752 151.233 91.8579 150.564 96.4359C149.909 100.936 147.224 103.943 142.77 105.112C140.847 105.614 138.744 105.544 136.724 105.557C135.06 105.57 134.008 104.493 134.017 103.104C134.026 101.724 135.091 100.733 136.75 100.646C137.903 100.586 139.06 100.659 140.214 100.59C142.995 100.434 145.165 98.5345 145.583 95.9513C146.032 93.1906 144.694 90.6334 142.04 89.6987C140.438 89.1362 139.703 88.1886 139.303 86.6222C138.484 83.4246 135.285 81.4385 132.107 82.2087C130.241 82.663 129.062 82.2087 127.838 80.7548C123.719 75.8653 115.942 77.0379 113.518 82.9096C112.796 84.6534 111.775 85.415 109.904 85.6313C105.591 86.129 102.669 90.3088 103.554 94.4801C104.337 98.1754 107.211 100.542 111.181 100.603C115.692 100.672 120.203 100.594 124.713 100.646C126.443 100.668 127.424 101.628 127.451 103.069C127.477 104.514 126.5 105.557 124.806 105.562C119.692 105.579 114.561 105.743 109.469 105.389C102.528 104.908 97.3617 97.9201 98.5147 91.1613C98.9944 88.353 100.341 86.0165 102.256 83.9265C98.5191 78.6995 93.6253 75.7787 87.1516 75.1556V150.956H154.125C154.125 146.205 154.12 141.562 154.125 136.915C154.125 134.804 155.071 133.614 156.677 133.644C158.231 133.674 159.124 134.825 159.129 136.846C159.138 141.389 159.129 145.933 159.129 150.476C159.129 154.513 157.588 156.006 153.425 156.006C136.041 156.006 118.658 156.006 101.274 156.006H99.2937V159.524H101.186C121.21 159.524 141.235 159.524 161.254 159.524C163.948 159.524 164.009 159.459 164.009 156.772C164.009 122.753 164.009 88.7338 164.009 54.7105C164.009 54.2778 164.159 53.7585 163.97 53.434C163.662 52.9018 163.191 52.1878 162.68 52.097C161.58 51.8936 160.409 52.0364 159.12 52.0364C159.12 52.8542 159.12 53.4903 159.12 54.1263C159.12 77.2196 159.12 100.317 159.12 123.411C159.12 126.033 158.35 127.192 156.616 127.188C154.882 127.188 154.112 126.02 154.112 123.402C154.112 98.3614 154.112 73.3167 154.112 48.2762V46.1862C144.32 49.1373 134.536 50.5349 124.392 50.3445L124.41 50.3402ZM34.6925 77.0119C36.4881 77.3884 38.002 77.172 39.1991 75.7441C39.5379 75.3417 40.0352 75.0085 40.5325 74.8095C41.8528 74.2859 42.513 73.2431 43.1511 72.0705C54.9456 50.4657 81.5316 41.2405 104.469 50.8594C115.916 55.6624 124.265 63.6761 129.559 74.7835C130.003 75.7181 130.932 76.8388 131.843 77.0595C133.374 77.436 135.069 77.1634 136.631 77.1634C131.266 59.838 112.844 42.2919 87.5696 41.4222C61.1465 40.5135 40.8626 58.0899 34.6969 77.0076L34.6925 77.0119ZM43.5736 100.62C48.0845 100.62 52.5955 100.637 57.1064 100.607C58.0878 100.598 59.1044 100.555 60.0418 100.3C63.5142 99.3566 65.8687 96.0421 65.6178 92.5978C65.3494 88.8896 62.6296 86.0251 58.8316 85.5751C57.2605 85.389 56.2703 84.7962 55.6541 83.2428C53.1412 76.9081 45.2679 75.7614 40.8802 81.0707C39.9252 82.226 38.8866 82.6241 37.4343 82.3212C33.4118 81.4861 30.6525 83.2645 29.4422 87.1501C29.1649 88.0372 28.3024 89.0281 27.4442 89.4175C24.3679 90.8108 22.8936 93.0479 23.4305 96.0422C23.9234 98.8158 26.2515 100.586 29.5478 100.607C34.2216 100.637 38.8998 100.616 43.5736 100.616V100.62ZM54.7739 74.472C55.0204 74.1518 55.3549 73.7364 55.6717 73.3037C65.0941 60.3832 82.3061 54.9874 97.5861 60.1539C104.76 62.577 110.6 66.7872 115.207 72.6979C115.533 73.1176 116.224 73.5893 116.682 73.533C118.623 73.2993 120.537 72.8753 122.412 72.5335C117.285 62.7025 102.806 51.3354 84.2073 52.0796C69.3938 52.6768 51.3764 63.2866 48.8899 72.607C50.8175 73.2171 52.7319 73.8229 54.7783 74.472H54.7739ZM64.1567 82.0486C73.8035 66.5708 96.2571 66.1165 106.617 81.2913C107.33 81.088 108.316 81.101 108.743 80.625C109.847 79.3875 110.705 77.9379 111.678 76.5576C107.295 69.6517 97.3969 63.0183 85.6772 63.1784C73.94 63.3385 65.0105 68.492 58.6379 77.6913C59.1881 81.0793 62.0531 81.036 64.1611 82.0486H64.1567ZM94.1358 156.114H74.8686C74.8686 157.456 74.7805 158.697 74.9082 159.918C74.9654 160.471 75.3307 161.146 75.7796 161.484C80.4269 165.006 88.5598 165.002 93.2468 161.488C93.6385 161.194 94.0566 160.679 94.0962 160.238C94.2062 158.909 94.1358 157.564 94.1358 156.11V156.114Z" fill="white"/>
<path d="M51.1652 0C53.973 1.36301 54.6904 3.62604 54.0611 6.47755C53.9334 7.05737 53.9818 7.68911 53.7794 8.23432C52.5119 11.6267 53.6738 14.0931 56.6268 16.0056C57.4894 16.5638 58.1803 17.3773 58.9329 18.0869C60.2267 19.3072 60.7593 20.787 60.2664 22.5048C59.7603 24.2746 58.5412 25.3477 56.684 25.6852C54.4703 26.0876 52.2347 26.4035 50.0474 26.9227C49.3873 27.0785 48.6347 27.6626 48.309 28.2511C47.3452 30.0035 46.5487 31.8512 45.7301 33.6772C44.9071 35.5118 43.6133 36.6888 41.4832 36.7234C39.4324 36.7537 38.1077 35.6979 37.2099 33.9541C36.2681 32.1238 35.3263 30.2848 34.2481 28.5324C33.9136 27.9872 33.1743 27.4549 32.5405 27.3468C30.4853 26.9963 28.3992 26.8232 26.322 26.6155C24.3592 26.4208 22.8541 25.59 22.1103 23.725C21.3578 21.8385 21.9387 20.2331 23.3118 18.8398C24.8433 17.2864 26.4188 15.7763 27.8887 14.1667C28.2496 13.7686 28.4741 13.0287 28.3904 12.5008C28.0692 10.4195 27.6159 8.3598 27.1758 6.30014C26.7533 4.34 27.0922 2.61785 28.7865 1.36734C30.4149 0.168754 32.1444 0.263948 33.9092 1.14233C35.8192 2.09428 37.738 3.04189 39.6964 3.88134C40.2069 4.09769 41.0079 4.11067 41.492 3.86403C43.8773 2.64381 46.1878 1.30243 48.5247 0C49.4049 0 50.2851 0 51.1652 0ZM32.2677 5.87176C32.699 8.0872 32.9938 10.0517 33.4823 11.9729C34.0148 14.0844 33.4823 15.772 31.9112 17.2605C30.4633 18.6321 29.1034 20.0903 27.4751 21.7476C29.9264 22.0332 31.9904 22.3058 34.0588 22.5092C36.1097 22.7125 37.4916 23.725 38.3894 25.5424C39.2915 27.3684 40.317 29.1295 41.3952 31.1199C42.3194 29.1468 43.204 27.4679 43.9081 25.7155C44.8103 23.4654 46.3902 22.2885 48.8328 22.0159C50.7207 21.8082 52.5867 21.3841 54.752 21.0077C53.1457 19.5451 51.821 18.1778 50.3335 17.0138C48.3222 15.4388 47.8029 13.4873 48.2518 11.1031C48.5863 9.31174 48.7975 7.4944 49.1056 5.40445C47.2924 6.39966 45.6641 7.16987 44.1722 8.13912C41.9145 9.60166 39.7492 9.72714 37.3947 8.34249C35.8544 7.43382 34.1645 6.77178 32.2721 5.86744L32.2677 5.87176Z" fill="white"/>
<path d="M47.9657 133.051C47.9657 134.02 48.0493 134.998 47.9437 135.959C47.7985 137.274 46.8919 137.993 45.6112 138.04C44.3217 138.088 43.2567 137.413 43.1511 136.128C42.9795 134.098 42.9663 132.034 43.1247 130.005C43.2303 128.65 44.2777 127.95 45.6816 128.023C47.0107 128.092 47.8249 128.85 47.9569 130.148C48.0537 131.108 47.9745 132.086 47.9745 133.055C47.9745 133.055 47.9701 133.055 47.9657 133.055V133.051Z" fill="white"/>
<path d="M47.9789 114.514C47.9789 115.483 48.0581 116.461 47.9613 117.422C47.8205 118.811 46.8875 119.572 45.532 119.59C44.2469 119.607 43.2259 118.876 43.1247 117.595C42.9662 115.613 42.9574 113.605 43.1027 111.624C43.2039 110.282 44.1765 109.516 45.598 109.56C47.0151 109.603 47.8381 110.395 47.9701 111.762C48.0581 112.671 47.9877 113.593 47.9877 114.51C47.9877 114.51 47.9833 114.51 47.9789 114.51V114.514Z" fill="white"/>
<path d="M117.668 22.4183C116.787 22.4183 115.907 22.4659 115.031 22.4053C113.619 22.3101 112.624 21.3019 112.589 20.0255C112.554 18.762 113.54 17.6067 114.917 17.5417C116.779 17.4552 118.653 17.4595 120.519 17.5417C121.932 17.6023 122.861 18.6754 122.847 19.9952C122.834 21.3106 121.892 22.3058 120.471 22.4053C119.542 22.4702 118.605 22.4183 117.672 22.4183H117.668Z" fill="white"/>
<path d="M136.46 22.4182C135.579 22.4182 134.699 22.4658 133.823 22.4053C132.411 22.3101 131.416 21.3062 131.381 20.0297C131.346 18.7576 132.318 17.6066 133.7 17.5417C135.562 17.4508 137.437 17.4552 139.303 17.5417C140.706 17.6023 141.648 18.684 141.639 19.9908C141.631 21.2975 140.68 22.3057 139.263 22.4053C138.334 22.4702 137.397 22.4182 136.464 22.4182H136.46Z" fill="white"/>
<path d="M36.1448 126.219C35.2118 126.219 34.27 126.279 33.3458 126.206C31.9507 126.093 31.1453 125.284 31.0265 123.917C30.9121 122.619 31.8495 121.45 33.2446 121.364C35.159 121.251 37.091 121.251 39.0098 121.364C40.3961 121.442 41.3819 122.623 41.2587 123.895C41.1223 125.327 40.2729 126.145 38.7898 126.219C37.914 126.262 37.0338 126.227 36.1536 126.227C36.1536 126.227 36.1536 126.223 36.1536 126.219H36.1448Z" fill="white"/>
<path d="M54.884 126.214C53.951 126.214 53.0092 126.284 52.085 126.197C50.6899 126.067 49.8845 125.245 49.8273 123.865C49.7701 122.463 50.5843 121.507 51.9221 121.39C53.8849 121.221 55.8786 121.238 57.8458 121.377C59.2101 121.472 59.9934 122.42 60.055 123.787C60.1123 125.055 59.078 126.106 57.6829 126.206C56.7544 126.271 55.817 126.219 54.884 126.219C54.884 126.219 54.884 126.219 54.884 126.214Z" fill="white"/>
<path d="M129.642 29.3199C129.642 30.181 129.717 31.055 129.625 31.9074C129.462 33.3959 128.357 34.3392 126.971 34.2094C125.488 34.0709 124.7 33.2012 124.665 31.7517C124.625 30.0252 124.617 28.2987 124.674 26.5765C124.722 25.114 125.576 24.2529 127.05 24.201C128.538 24.1491 129.422 25.0102 129.612 26.4164C129.739 27.3684 129.634 28.355 129.634 29.3242C129.634 29.3242 129.638 29.3242 129.642 29.3242V29.3199Z" fill="white"/>
<path d="M124.674 10.6098C124.674 9.74873 124.625 8.88332 124.687 8.02225C124.775 6.72414 125.501 5.91066 126.83 5.76787C128.225 5.61642 129.365 6.24384 129.497 7.58954C129.704 9.66651 129.686 11.7868 129.515 13.868C129.409 15.1359 128.335 15.8368 127.042 15.7676C125.682 15.6984 124.793 14.9238 124.691 13.5219C124.625 12.557 124.678 11.5834 124.678 10.6098C124.678 10.6098 124.678 10.6098 124.674 10.6098Z" fill="white"/>
<path d="M113.456 117.863C116.55 119.226 118.816 117.093 120.704 114.038C121.734 112.372 123.257 111.494 125.294 111.892C127.363 112.294 128.445 113.783 128.604 115.665C128.93 119.52 130.936 121.602 134.756 122.32C136.653 122.675 138.048 123.852 138.295 125.903C138.541 127.954 137.485 129.442 135.694 130.182C131.997 131.714 130.624 134.34 131.09 138.17C131.319 140.031 130.584 141.601 128.745 142.419C126.923 143.228 125.18 142.847 123.93 141.424C121.237 138.369 118.2 137.837 114.521 139.533C112.866 140.299 111.154 140.031 109.83 138.633C108.456 137.183 108.342 135.474 109.266 133.83C111.066 130.637 111.396 127.716 108.509 124.873C107.119 123.501 106.586 121.697 107.603 119.806C108.668 117.824 110.503 117.504 113.451 117.868L113.456 117.863ZM114.464 134.392C119.107 132.147 122.834 132.977 126.17 136.833C125.246 131.662 127.433 128.508 132.12 126.586C126.984 125.808 124.339 123.038 124.036 117.881C121.65 122.372 118.152 124.008 113.113 122.77C116.638 126.361 117.271 130.065 114.464 134.392Z" fill="white"/>
</svg>
