<svg width="50" height="50" viewBox="0 0 50 50" fill="none" xmlns="http://www.w3.org/2000/svg">
<path d="M32.6276 14.7C31.4941 13.3994 30.8694 11.7291 30.8699 10H25.7462V30.6667C25.7067 31.785 25.2369 32.8444 24.4358 33.6216C23.6348 34.3988 22.5649 34.8332 21.4515 34.8333C19.0969 34.8333 17.1403 32.9 17.1403 30.5C17.1403 27.6333 19.8929 25.4833 22.7283 26.3667V21.1C17.0077 20.3333 12 24.8 12 30.5C12 36.05 16.5765 40 21.4349 40C26.6416 40 30.8699 35.75 30.8699 30.5V20.0167C32.9476 21.5164 35.4421 22.3211 38 22.3167V17.1667C38 17.1667 34.8827 17.3167 32.6276 14.7Z" fill="white"/>
</svg>
