<svg width="50" height="50" viewBox="0 0 50 50" fill="none" xmlns="http://www.w3.org/2000/svg">
<path d="M8.30154 35.2686C11.8759 35.4702 15.0016 34.633 18.0498 32.4161C14.9706 31.889 12.8353 30.4782 11.6748 27.5636C12.5722 27.4396 13.3614 27.6721 14.2898 27.3C11.257 25.9668 9.29185 23.9669 9.21448 20.5097C10.1738 20.5872 10.9011 21.2228 12.0461 21.1298C9.26091 18.4013 8.40985 15.4247 10.1584 11.8125C13.0674 15.1611 16.4716 17.4401 20.6339 18.5098C20.866 18.5718 21.0827 18.6338 21.3148 18.6803C22.3824 18.9284 23.6513 19.4555 24.3012 19.378C25.4152 19.2384 24.3012 17.9517 24.5797 16.2773C25.4617 11.0683 31.1869 8.69634 35.4266 11.7504C36.6645 12.6496 37.6393 12.6341 38.8617 12.0915C39.4961 11.8125 40.146 11.5334 40.9042 11.2078C40.734 12.6961 39.589 13.5178 38.676 14.6185C39.7128 14.8511 40.5483 14.5565 41.5077 14.2464C41.1827 15.3162 40.3781 15.9208 39.6509 16.5099C38.8927 17.1145 38.5987 17.7501 38.5677 18.7423C38.1035 33.7648 21.0672 45.3766 9.41564 36.1368C8.28607 35.2376 9.38468 36.1368 8.30154 35.2686Z" fill="white"/>
</svg>
