<svg width="30" height="30" viewBox="0 0 30 30" fill="none" xmlns="http://www.w3.org/2000/svg">
<g clip-path="url(#clip0_1015_1283)">
<path d="M16.25 17.7303V10.0003C16.25 9.66879 16.1183 9.35085 15.8839 9.11643C15.6495 8.88201 15.3315 8.75031 15 8.75031C14.6685 8.75031 14.3505 8.88201 14.1161 9.11643C13.8817 9.35085 13.75 9.66879 13.75 10.0003V17.7303C12.9181 18.0251 12.2171 18.6044 11.7709 19.366C11.3247 20.1275 11.1621 21.0222 11.3116 21.8921C11.4612 22.7619 11.9134 23.5509 12.5883 24.1197C13.2632 24.6884 14.1174 25.0004 15 25.0004C15.8826 25.0004 16.7368 24.6884 17.4117 24.1197C18.0866 23.5509 18.5388 22.7619 18.6884 21.8921C18.8379 21.0222 18.6753 20.1275 18.2291 19.366C17.7829 18.6044 17.0819 18.0251 16.25 17.7303ZM21.25 15.1391V6.25031C20.9863 -2.01094 9.01125 -1.99969 8.75 6.25031V15.1391C7.54417 16.3698 6.72851 17.9291 6.40532 19.6215C6.08213 21.3139 6.26578 23.064 6.93325 24.6525C7.60072 26.2409 8.7223 27.5969 10.1573 28.5505C11.5924 29.5041 13.277 30.0128 15 30.0128C16.723 30.0128 18.4076 29.5041 19.8427 28.5505C21.2777 27.5969 22.3993 26.2409 23.0668 24.6525C23.7342 23.064 23.9179 21.3139 23.5947 19.6215C23.2715 17.9291 22.4558 16.3698 21.25 15.1391ZM15 27.5003C13.7419 27.4862 12.5172 27.0941 11.4848 26.3749C10.4525 25.6556 9.66029 24.6426 9.21115 23.4673C8.76202 22.2921 8.6767 21.0089 8.96629 19.7845C9.25587 18.5601 9.90697 17.4511 10.835 16.6016C10.9656 16.4844 11.07 16.341 11.1415 16.1807C11.213 16.0205 11.25 15.847 11.25 15.6716V6.25031C11.25 5.25575 11.6451 4.30192 12.3484 3.59866C13.0516 2.8954 14.0054 2.50031 15 2.50031C15.9946 2.50031 16.9484 2.8954 17.6517 3.59866C18.3549 4.30192 18.75 5.25575 18.75 6.25031V15.6716C18.75 15.847 18.787 16.0205 18.8585 16.1807C18.93 16.341 19.0344 16.4844 19.165 16.6016C20.093 17.4511 20.7441 18.5601 21.0337 19.7845C21.3233 21.0089 21.238 22.2921 20.7889 23.4673C20.3397 24.6426 19.5475 25.6556 18.5152 26.3749C17.4829 27.0941 16.2581 27.4862 15 27.5003Z" fill="#F6F6F9"/>
</g>
<defs>
<clipPath id="clip0_1015_1283">
<rect width="30" height="30" fill="white"/>
</clipPath>
</defs>
</svg>
