<svg width="30" height="31" viewBox="0 0 30 31" fill="none" xmlns="http://www.w3.org/2000/svg">
<g clip-path="url(#clip0_1015_1465)">
<path d="M0.65876 2.31619L2.30751 0.655253C3.01751 -0.0599933 4.11626 -0.206065 4.98626 0.300148L9.77626 3.08432C10.6925 3.61698 11.2575 4.6017 11.2575 5.66701V9.55302L17.165 15.5042C18.5588 14.8431 20.2675 15.0773 21.42 16.2345L28.7813 23.6288C30.17 25.024 30.4375 27.3007 29.1925 28.8281C27.7613 30.5848 25.1775 30.6817 23.62 29.1165L16.1075 21.5699C14.95 20.4076 14.7213 18.68 15.39 17.2772L9.49001 11.3336H5.63251C4.57501 11.3336 3.59626 10.7644 3.06876 9.84138L0.30626 5.01473C-0.19499 4.1383 -0.0512402 3.03143 0.65876 2.31619ZM13.7575 5.66701V8.51037L17.9013 12.6835C19.8063 12.4165 21.7813 13.0398 23.185 14.4502L25.945 17.223C28.3038 15.5621 29.9 12.8434 30.0063 9.81746C30.0413 8.81762 29.925 7.84172 29.6575 6.89981C29.4938 6.32434 28.25 5.41391 27.225 6.44648C26.2 7.47906 23.08 10.6221 23.08 10.6221C22.0963 11.6131 20.4875 11.5842 19.5138 10.5768C18.515 9.59583 18.4838 7.97394 19.4675 6.98292C19.4675 6.98292 22.5875 3.83986 23.6125 2.80729C24.6375 1.77471 23.7338 0.521774 23.1625 0.356814C22.2275 0.0873374 21.2588 -0.0310308 20.2663 0.00548707C17.5025 0.104967 15 1.47628 13.3325 3.5452C13.6075 4.20756 13.7575 4.92784 13.7575 5.66701ZM12.585 18.0126L9.71876 15.1251L1.07376 23.8076C-0.37874 25.2721 -0.36999 27.6596 1.06501 29.1354C2.53001 30.5823 4.90001 30.5911 6.35376 29.1278L13.3725 22.0774C12.6625 20.8509 12.3825 19.4166 12.585 18.0126Z" fill="#F6F6F9"/>
</g>
<defs>
<clipPath id="clip0_1015_1465">
<rect width="30" height="30.2217" fill="white"/>
</clipPath>
</defs>
</svg>
