<svg width="40" height="30" viewBox="0 0 30 40" fill="none" xmlns="http://www.w3.org/2000/svg">
<path d="M12.576 33.32C10.4 33.32 8.49067 32.84 6.848 31.88C5.22667 30.92 3.968 29.576 3.072 27.848C2.176 26.0987 1.728 24.0507 1.728 21.704C1.728 19.336 2.176 17.288 3.072 15.56C3.968 13.832 5.22667 12.4987 6.848 11.56C8.46933 10.6 10.3787 10.12 12.576 10.12C14.7733 10.12 16.6827 10.6 18.304 11.56C19.9253 12.4987 21.184 13.832 22.08 15.56C22.976 17.288 23.424 19.3253 23.424 21.672C23.424 24.04 22.976 26.0987 22.08 27.848C21.184 29.576 19.9253 30.92 18.304 31.88C16.6827 32.84 14.7733 33.32 12.576 33.32ZM12.576 29.8C14.6453 29.8 16.256 29.0853 17.408 27.656C18.56 26.2267 19.136 24.2427 19.136 21.704C19.136 19.144 18.56 17.16 17.408 15.752C16.2773 14.344 14.6667 13.64 12.576 13.64C10.5067 13.64 8.896 14.344 7.744 15.752C6.592 17.16 6.016 19.144 6.016 21.704C6.016 24.2427 6.592 26.2267 7.744 27.656C8.896 29.0853 10.5067 29.8 12.576 29.8Z" fill="#F6F6F9"/>
<path d="M25.28 16V14.48L28.928 10.592C29.4187 10.0587 29.7707 9.58933 29.984 9.184C30.1973 8.768 30.304 8.34667 30.304 7.92C30.304 6.832 29.648 6.288 28.336 6.288C27.312 6.288 26.368 6.672 25.504 7.44L24.816 5.904C25.264 5.49867 25.824 5.17333 26.496 4.928C27.168 4.68267 27.8667 4.56 28.592 4.56C29.7973 4.56 30.72 4.832 31.36 5.376C32.0107 5.92 32.336 6.69867 32.336 7.712C32.336 8.39467 32.1707 9.05067 31.84 9.68C31.52 10.3093 31.0133 10.9867 30.32 11.712L27.84 14.304H32.768V16H25.28Z" fill="#F6F6F9"/>
</svg>
