<svg width="47" height="45" viewBox="0 0 47 45" fill="none" xmlns="http://www.w3.org/2000/svg">
<path d="M20.6383 2.09624C21.519 -0.703342 25.481 -0.703347 26.3617 2.09624L29.6871 12.6663C30.0802 13.9159 31.2388 14.766 32.5488 14.766H43.5107C46.3934 14.766 47.617 18.4354 45.3113 20.1655L36.2782 26.9437C35.2605 27.7073 34.8352 29.0299 35.217 30.2436L38.6278 41.0849C39.5027 43.866 36.2974 46.1346 33.9655 44.3848L25.3006 37.883C24.2337 37.0824 22.7663 37.0824 21.6994 37.883L13.0345 44.3848C10.7026 46.1346 7.49731 43.866 8.37224 41.0849L11.783 30.2436C12.1648 29.0299 11.7395 27.7073 10.7218 26.9437L1.68873 20.1655C-0.617012 18.4354 0.606605 14.766 3.48929 14.766H14.4512C15.7612 14.766 16.9198 13.9159 17.3129 12.6663L20.6383 2.09624Z" fill="#FFE037"/>
</svg>
