<svg width="40" height="30" viewBox="0 0 30 30" fill="none" xmlns="http://www.w3.org/2000/svg">
<g clip-path="url(#clip0_993_2631)">
<path d="M17.5 30C16.5146 30.0029 15.5385 29.81 14.6282 29.4325C13.718 29.0551 12.8918 28.5006 12.1975 27.8013C10.7992 26.39 10.0147 24.4836 10.0147 22.4969C10.0147 20.5101 10.7992 18.6038 12.1975 17.1925L17.5 11.5663L22.8288 17.215C24.2148 18.6291 24.989 20.5316 24.9841 22.5116C24.9791 24.4917 24.1956 26.3903 22.8025 27.7975C22.1086 28.4975 21.2825 29.0527 20.3723 29.4308C19.462 29.8089 18.4857 30.0024 17.5 30ZM17.5 15.2138L13.99 18.935C13.0458 19.8733 12.5127 21.1481 12.508 22.4792C12.5033 23.8103 13.0274 25.0889 13.965 26.0338C14.917 26.9436 16.1832 27.4514 17.5 27.4514C18.8169 27.4514 20.0831 26.9436 21.035 26.0338C21.9671 25.0928 22.4899 23.8219 22.4899 22.4975C22.4899 21.1731 21.9671 19.9022 21.035 18.9613L17.5 15.2138ZM6.25004 14.995C5.42897 14.9973 4.61562 14.8366 3.85712 14.5223C3.09861 14.2079 2.41003 13.7462 1.83129 13.1638C0.666126 11.9877 0.0124512 10.3992 0.0124512 8.74375C0.0124512 7.08828 0.666126 5.49976 1.83129 4.32375L6.25004 0L10.6588 4.31C11.8286 5.48495 12.4862 7.07492 12.4881 8.73294C12.49 10.391 11.836 11.9824 10.6688 13.16C10.0902 13.7426 9.40161 14.2044 8.64308 14.5188C7.88454 14.8332 7.07113 14.9938 6.25004 14.9913V14.995ZM6.25004 3.495L3.58879 6.0975C2.90677 6.80587 2.53028 7.75378 2.54041 8.73705C2.55053 9.72033 2.94647 10.6603 3.64294 11.3545C4.3394 12.0486 5.28066 12.4415 6.26396 12.4483C7.24726 12.4552 8.19392 12.0756 8.90004 11.3913C9.59918 10.6857 9.99142 9.73264 9.99142 8.73938C9.99142 7.74611 9.59918 6.79303 8.90004 6.0875L6.25004 3.495ZM25 12.495C24.3429 12.496 23.692 12.3666 23.0852 12.1142C22.4784 11.8619 21.9277 11.4917 21.465 11.025C20.5331 10.0843 20.0102 8.81359 20.0102 7.48938C20.0102 6.16516 20.5331 4.8945 21.465 3.95375L24.9775 0.04875L28.575 4C29.4886 4.94447 29.996 6.20915 29.9886 7.52316C29.9811 8.83716 29.4593 10.096 28.535 11.03C28.0716 11.4951 27.5206 11.8637 26.9138 12.1145C26.3071 12.3653 25.6566 12.4934 25 12.4913V12.495ZM24.99 3.77625L23.2775 5.6775C22.8023 6.1403 22.5304 6.77294 22.5216 7.43623C22.5128 8.09952 22.7679 8.73914 23.2307 9.21438C23.6935 9.68961 24.3261 9.96153 24.9894 9.97032C25.6527 9.97912 26.2923 9.72405 26.7675 9.26125C27.2336 8.79077 27.495 8.15534 27.495 7.49313C27.495 6.83091 27.2336 6.19548 26.7675 5.725L24.99 3.77625Z" fill="#F6F6F9"/>
</g>
<defs>
<clipPath id="clip0_993_2631">
<rect width="30" height="30" fill="white"/>
</clipPath>
</defs>
</svg>
