<svg width="30" height="30" viewBox="0 0 30 30" fill="none" xmlns="http://www.w3.org/2000/svg">
<path d="M25 5.0648C22.0735 2.48223 18.2557 1.14201 14.3572 1.32871C10.4586 1.51541 6.78635 3.21434 4.12012 6.06474C1.45388 8.91515 0.00366104 12.6925 0.0773864 16.5949C0.151112 20.4972 1.74297 24.2171 4.51497 26.9648C5.68548 28.1126 7.2606 28.7538 8.89997 28.7498H21.1087C22.661 28.7709 24.162 28.1945 25.3012 27.1398C26.7999 25.7091 27.9873 23.9846 28.7894 22.0742C29.5914 20.1637 29.9908 18.1084 29.9625 16.0366C29.9342 13.9649 29.4789 11.9212 28.6251 10.0334C27.7712 8.14553 26.5371 6.4541 25 5.0648ZM23.585 25.3236C22.9081 25.9372 22.0221 26.2686 21.1087 26.2498H8.89997C7.914 26.2529 6.96646 25.8676 6.26247 25.1773C4.47935 23.4344 3.2582 21.1981 2.75599 18.7558C2.25378 16.3135 2.49345 13.7768 3.44421 11.4718C4.39497 9.16673 6.01337 7.19871 8.09137 5.82066C10.1694 4.44262 12.612 3.71752 15.1053 3.73857C17.5987 3.75962 20.0287 4.52586 22.0832 5.93879C24.1376 7.35173 25.7225 9.3468 26.6342 11.6676C27.5459 13.9883 27.7428 16.5287 27.1994 18.9622C26.656 21.3957 25.3973 23.611 23.585 25.3236ZM23.835 16.2373C23.6725 16.2606 23.5069 16.2517 23.3479 16.2111C23.1888 16.1704 23.0393 16.0988 22.9079 16.0004C22.7765 15.902 22.6658 15.7786 22.5821 15.6374C22.4983 15.4962 22.4433 15.3398 22.42 15.1773C22.1568 13.3954 21.2633 11.767 19.9019 10.5876C18.5404 9.40825 16.8012 8.75619 15 8.7498C8.41497 8.6248 4.94997 17.1073 9.75872 21.606C9.99576 21.8381 10.1309 22.1548 10.1344 22.4865C10.1379 22.8182 10.0095 23.1378 9.77747 23.3748C9.54541 23.6118 9.22869 23.747 8.89698 23.7505C8.56528 23.754 8.24576 23.6256 8.00872 23.3935C1.60872 17.3098 6.17372 6.14355 15 6.2498C17.4025 6.25857 19.7223 7.12827 21.5385 8.7011C23.3546 10.2739 24.5468 12.4457 24.8987 14.8223C24.922 14.9849 24.9131 15.1505 24.8724 15.3097C24.8316 15.4688 24.7599 15.6183 24.6614 15.7498C24.5628 15.8812 24.4393 15.9919 24.298 16.0755C24.1566 16.1592 24.0001 16.2142 23.8375 16.2373H23.835ZM24.21 20.2923C24.144 20.4427 24.0491 20.5786 23.9306 20.6923C23.8121 20.806 23.6723 20.8952 23.5194 20.9549C23.3664 21.0146 23.2031 21.0435 23.0389 21.0401C22.8747 21.0366 22.7128 21.0008 22.5625 20.9348L16.4787 18.2648C16.0359 18.5916 15.4975 18.7631 14.9472 18.7528C14.3969 18.7424 13.8654 18.5508 13.4352 18.2075C13.0049 17.8643 12.7 17.3886 12.5676 16.8544C12.4353 16.3201 12.4829 15.7572 12.7032 15.2528C12.9235 14.7484 13.304 14.3307 13.7858 14.0647C14.2677 13.7986 14.8238 13.699 15.368 13.7813C15.9122 13.8636 16.4141 14.1232 16.7957 14.5198C17.1773 14.9164 17.4174 15.4278 17.4787 15.9748L23.5625 18.6448C23.7134 18.7102 23.85 18.8047 23.9643 18.9229C24.0787 19.0412 24.1686 19.1808 24.2288 19.3339C24.2891 19.4869 24.3186 19.6504 24.3156 19.8148C24.3125 19.9793 24.2758 20.1416 24.21 20.2923Z" fill="#F6F6F9"/>
</svg>
