<svg width="1440" height="990" viewBox="0 0 1440 990" fill="none" xmlns="http://www.w3.org/2000/svg">
<g clip-path="url(#clip0_1557_705)">
<mask id="mask0_1557_705" style="mask-type:luminance" maskUnits="userSpaceOnUse" x="0" y="0" width="1440" height="990">
<path d="M1440 0H0V990H1440V0Z" fill="white"/>
</mask>
<g mask="url(#mask0_1557_705)">
<path d="M1210.74 172.38C866.45 172.38 866.45 0 522.21 0C177.97 0 178.02 172.38 -166.22 172.38C-339.37 172.38 -425.43 128.82 -512 85.47V990H1875V0.32C1554.87 8.24 1546.7 172.37 1210.74 172.37V172.38Z" fill="#F6F6F9"/>
<g opacity="0.5">
<path d="M262.8 275.8C294.795 243.804 294.795 191.929 262.8 159.933C230.804 127.938 178.929 127.938 146.933 159.933C114.938 191.929 114.938 243.804 146.933 275.8C178.929 307.796 230.804 307.796 262.8 275.8Z" fill="url(#paint0_linear_1557_705)" fill-opacity="0.7"/>
<path opacity="0.3" d="M268.247 165.947C243.287 135.417 199.207 126.557 163.937 146.897C147.987 156.097 136.297 169.857 129.577 185.577C129.847 185.477 130.117 185.367 130.387 185.267C134.407 183.847 138.557 182.797 142.767 182.137C146.977 181.477 151.247 181.217 155.507 181.377C156.507 181.417 157.497 181.477 158.497 181.557C183.307 183.677 206.777 199.327 231.337 195.267C245.607 192.907 258.427 183.627 265.697 171.127C266.657 169.477 267.517 167.737 268.257 165.937L268.247 165.947Z" fill="url(#paint1_linear_1557_705)"/>
<path d="M143.117 171.396C145.707 169.906 146.597 166.596 145.097 164.006C144.837 163.556 144.507 163.186 144.157 162.836C141.737 165.506 139.507 168.306 137.487 171.236C139.137 172.296 141.297 172.446 143.107 171.396H143.117Z" fill="#2E2786" fill-opacity="0.3"/>
<path style="mix-blend-mode:multiply" opacity="0.15" d="M279.287 183.617C278.277 190.547 277.177 197.467 275.677 204.307C271.867 221.657 265.157 238.987 252.597 251.547C239.347 264.797 220.717 271.537 202.127 273.927C191.337 275.317 180.177 275.347 169.777 272.117C154.737 267.437 142.367 256.157 133.927 242.867C129.327 235.627 125.797 227.807 122.947 219.717C123.237 233.027 126.777 246.457 133.897 258.807C156.507 298.007 206.607 311.447 245.807 288.837C282.807 267.497 296.847 221.657 279.287 183.617Z" fill="url(#paint2_linear_1557_705)" fill-opacity="0.7"/>
<path d="M135.607 190.196C131.867 192.356 135.217 198.176 138.957 196.006C142.697 193.846 139.347 188.026 135.607 190.196Z" fill="url(#paint3_linear_1557_705)" fill-opacity="0.7"/>
<path d="M234.037 258.007C227.137 261.987 233.307 272.717 240.227 268.727C247.147 264.737 240.957 254.017 234.037 258.007Z" fill="url(#paint4_linear_1557_705)" fill-opacity="0.7"/>
<path d="M199.537 169.566C194.737 172.336 199.027 179.806 203.847 177.026C208.667 174.246 204.357 166.786 199.537 169.566Z" fill="url(#paint5_linear_1557_705)" fill-opacity="0.7"/>
<path d="M239.597 282.036C234.987 284.696 234.907 289.686 237.127 293.166C240.067 291.906 242.977 290.476 245.817 288.836C247.477 287.876 249.077 286.856 250.647 285.796C248.837 281.946 244.357 279.286 239.607 282.036H239.597Z" fill="url(#paint6_linear_1557_705)" fill-opacity="0.7"/>
<path d="M200.847 267.286C206.626 263.952 208.608 256.564 205.274 250.786C201.941 245.007 194.553 243.024 188.774 246.358C182.995 249.692 181.013 257.079 184.347 262.858C187.681 268.637 195.068 270.619 200.847 267.286Z" fill="url(#paint7_linear_1557_705)" fill-opacity="0.7"/>
<path opacity="0.3" d="M191.667 268.497C185.227 266.767 181.407 260.147 183.137 253.707C184.867 247.267 191.487 243.447 197.927 245.177C204.367 246.907 208.187 253.527 206.457 259.967C204.727 266.407 198.107 270.227 191.667 268.497Z" stroke="url(#paint8_linear_1557_705)" stroke-width="0.8" stroke-miterlimit="10"/>
<path d="M172.219 194.893C178.609 192.976 182.235 186.242 180.318 179.851C178.401 173.461 171.666 169.835 165.276 171.752C158.886 173.669 155.26 180.404 157.177 186.794C159.094 193.184 165.828 196.81 172.219 194.893Z" fill="url(#paint9_linear_1557_705)" fill-opacity="0.7"/>
<path opacity="0.3" d="M165.597 195.007C159.157 193.277 155.337 186.657 157.067 180.217C158.797 173.777 165.417 169.957 171.857 171.687C178.297 173.417 182.117 180.037 180.387 186.477C178.657 192.917 172.037 196.737 165.597 195.007Z" stroke="url(#paint10_linear_1557_705)" stroke-width="0.8" stroke-miterlimit="10"/>
<path d="M206.257 213.526C209.135 213.526 211.467 211.194 211.467 208.316C211.467 205.439 209.135 203.106 206.257 203.106C203.38 203.106 201.047 205.439 201.047 208.316C201.047 211.194 203.38 213.526 206.257 213.526Z" fill="url(#paint11_linear_1557_705)" fill-opacity="0.7"/>
<path opacity="0.3" d="M204.907 213.346C202.127 212.596 200.477 209.746 201.227 206.966C201.977 204.186 204.827 202.536 207.607 203.286C210.387 204.036 212.037 206.886 211.287 209.666C210.537 212.446 207.687 214.096 204.907 213.346Z" stroke="url(#paint12_linear_1557_705)" stroke-width="0.35" stroke-miterlimit="10"/>
<path d="M194.797 154.206C195.813 154.206 196.637 153.383 196.637 152.366C196.637 151.35 195.813 150.526 194.797 150.526C193.781 150.526 192.957 151.35 192.957 152.366C192.957 153.383 193.781 154.206 194.797 154.206Z" fill="url(#paint13_linear_1557_705)" fill-opacity="0.7"/>
<path opacity="0.3" d="M194.327 154.147C193.347 153.887 192.757 152.877 193.027 151.887C193.287 150.907 194.297 150.317 195.287 150.587C196.267 150.847 196.857 151.857 196.587 152.847C196.327 153.827 195.317 154.417 194.327 154.147Z" stroke="url(#paint14_linear_1557_705)" stroke-width="0.12" stroke-miterlimit="10"/>
<path d="M165.587 156.517C166.097 157.397 165.797 158.527 164.907 159.037C164.017 159.547 162.897 159.247 162.387 158.357C161.877 157.467 162.177 156.347 163.067 155.837C163.957 155.327 165.077 155.627 165.587 156.517Z" fill="url(#paint15_linear_1557_705)"/>
<path opacity="0.3" d="M163.517 159.216C162.537 158.956 161.947 157.946 162.217 156.956C162.477 155.976 163.487 155.386 164.477 155.656C165.467 155.926 166.047 156.926 165.777 157.916C165.507 158.906 164.507 159.486 163.517 159.216Z" fill="url(#paint16_linear_1557_705)"/>
<path opacity="0.3" d="M234.187 143.606C234.207 143.476 234.217 143.356 234.237 143.226C234.257 143.066 234.277 142.916 234.287 142.756C234.287 142.606 234.287 142.466 234.287 142.316C234.287 142.176 234.287 142.036 234.287 141.896C234.287 141.756 234.267 141.606 234.257 141.466C234.257 141.446 234.257 141.416 234.257 141.396C229.157 139.436 223.867 137.976 218.477 137.066C218.447 137.106 218.417 137.156 218.377 137.206C218.297 137.326 218.207 137.446 218.127 137.566C218.057 137.686 217.997 137.806 217.927 137.926C217.857 138.056 217.777 138.186 217.717 138.316C217.647 138.456 217.587 138.596 217.527 138.736C217.477 138.856 217.417 138.976 217.377 139.096C217.277 139.366 217.187 139.636 217.107 139.916C217.027 140.196 216.977 140.476 216.927 140.756C216.907 140.886 216.897 141.016 216.877 141.146C216.857 141.296 216.837 141.456 216.827 141.606C216.827 141.756 216.827 141.906 216.817 142.056C216.817 142.196 216.817 142.326 216.817 142.466C216.817 142.616 216.837 142.756 216.847 142.906C216.857 143.046 216.867 143.186 216.887 143.316C216.907 143.456 216.937 143.586 216.957 143.726C216.987 143.866 217.007 144.016 217.037 144.156C217.067 144.286 217.107 144.416 217.147 144.556C217.187 144.696 217.227 144.846 217.267 144.986C217.317 145.136 217.377 145.286 217.437 145.426C217.487 145.546 217.527 145.666 217.577 145.776C217.697 146.036 217.827 146.296 217.967 146.546C218.107 146.796 218.267 147.036 218.437 147.276C218.507 147.376 218.597 147.476 218.667 147.576C218.767 147.706 218.857 147.826 218.967 147.946C219.067 148.056 219.167 148.156 219.277 148.266C219.377 148.366 219.467 148.466 219.567 148.556C219.677 148.656 219.787 148.746 219.897 148.846C220.007 148.936 220.107 149.026 220.217 149.116C220.327 149.196 220.447 149.276 220.557 149.356C220.677 149.436 220.797 149.526 220.917 149.606C221.037 149.676 221.157 149.746 221.277 149.806C221.407 149.876 221.537 149.956 221.667 150.016C221.807 150.086 221.947 150.146 222.087 150.206C222.207 150.256 222.327 150.316 222.447 150.356C222.717 150.456 222.987 150.546 223.267 150.626C223.547 150.706 223.827 150.756 224.107 150.806C224.237 150.826 224.367 150.836 224.497 150.856C224.647 150.876 224.807 150.896 224.957 150.906C225.107 150.906 225.257 150.906 225.407 150.916C225.547 150.916 225.677 150.916 225.817 150.916C225.967 150.916 226.107 150.896 226.257 150.886C226.397 150.876 226.537 150.866 226.677 150.846C226.817 150.826 226.947 150.796 227.087 150.776C227.227 150.746 227.377 150.726 227.517 150.696C227.647 150.666 227.777 150.626 227.917 150.586C228.057 150.546 228.207 150.506 228.347 150.466C228.497 150.416 228.647 150.356 228.787 150.296C228.907 150.246 229.027 150.206 229.137 150.156C229.397 150.036 229.657 149.906 229.907 149.766C230.157 149.626 230.397 149.466 230.637 149.296C230.737 149.226 230.837 149.136 230.937 149.066C231.067 148.966 231.187 148.876 231.307 148.766C231.417 148.666 231.517 148.566 231.627 148.456C231.727 148.356 231.827 148.266 231.917 148.166C232.017 148.056 232.107 147.946 232.207 147.836C232.297 147.726 232.387 147.626 232.477 147.516C232.557 147.406 232.637 147.286 232.717 147.176C232.797 147.056 232.887 146.936 232.967 146.816C233.037 146.696 233.097 146.576 233.167 146.456C233.237 146.326 233.317 146.196 233.377 146.066C233.447 145.926 233.507 145.786 233.567 145.636C233.617 145.516 233.677 145.396 233.717 145.276C233.817 145.006 233.907 144.736 233.987 144.456C234.067 144.176 234.117 143.896 234.167 143.616L234.187 143.606Z" fill="url(#paint17_linear_1557_705)"/>
<path d="M184.417 219.797C186.127 222.757 185.107 226.537 182.147 228.237C179.187 229.937 175.407 228.927 173.707 225.967C172.007 223.007 173.017 219.227 175.977 217.527C178.937 215.827 182.717 216.837 184.417 219.797Z" fill="url(#paint18_linear_1557_705)"/>
<path opacity="0.3" d="M177.457 228.857C174.157 227.977 172.207 224.577 173.087 221.287C173.967 217.997 177.367 216.037 180.657 216.917C183.957 217.797 185.907 221.197 185.027 224.487C184.147 227.787 180.747 229.737 177.457 228.857Z" fill="url(#paint19_linear_1557_705)"/>
<path d="M158.337 217.807C159.777 220.297 158.917 223.487 156.427 224.927C153.937 226.367 150.747 225.507 149.307 223.017C147.867 220.527 148.727 217.337 151.217 215.897C153.707 214.457 156.897 215.317 158.337 217.807Z" fill="url(#paint20_linear_1557_705)" fill-opacity="0.7"/>
<path opacity="0.3" d="M152.477 225.437C149.697 224.687 148.047 221.837 148.797 219.057C149.547 216.277 152.397 214.627 155.177 215.377C157.957 216.127 159.607 218.977 158.857 221.757C158.107 224.537 155.257 226.187 152.477 225.437Z" stroke="url(#paint21_linear_1557_705)" stroke-width="0.35" stroke-miterlimit="10"/>
<path d="M253.757 216.967C260.107 217.717 264.647 223.467 263.897 229.817C263.147 236.167 257.397 240.707 251.047 239.957C244.697 239.207 240.157 233.457 240.907 227.107C241.657 220.757 247.407 216.217 253.757 216.967Z" fill="url(#paint22_linear_1557_705)" fill-opacity="0.7"/>
<path opacity="0.3" d="M259.577 237.557C254.557 241.517 247.277 240.657 243.317 235.637C239.357 230.617 240.217 223.337 245.237 219.377C250.257 215.417 257.537 216.277 261.497 221.297C265.457 226.317 264.597 233.597 259.577 237.557Z" stroke="url(#paint23_linear_1557_705)" stroke-width="0.77" stroke-miterlimit="10"/>
<path d="M255.667 171.987C260.957 181.167 257.817 192.887 248.637 198.187C239.457 203.477 227.737 200.337 222.437 191.157C217.137 181.977 220.287 170.257 229.467 164.957C238.647 159.667 250.367 162.807 255.667 171.987Z" fill="url(#paint24_linear_1557_705)" fill-opacity="0.7"/>
<path opacity="0.3" d="M234.077 200.097C223.847 197.347 217.777 186.837 220.527 176.597C223.277 166.367 233.787 160.297 244.027 163.047C254.257 165.797 260.327 176.307 257.577 186.547C254.827 196.777 244.317 202.847 234.077 200.097Z" stroke="url(#paint25_linear_1557_705)" stroke-width="1.28" stroke-miterlimit="10"/>
<path d="M280.997 207.107C282.297 209.367 284.317 210.957 286.587 211.777C286.147 205.757 285.007 199.737 283.187 193.827C279.457 197.097 278.427 202.647 280.997 207.097V207.107Z" fill="#2E2786" fill-opacity="0.3"/>
<mask id="mask1_1557_705" style="mask-type:luminance" maskUnits="userSpaceOnUse" x="122" y="135" width="165" height="165">
<path d="M262.8 275.8C294.795 243.804 294.795 191.929 262.8 159.933C230.804 127.938 178.929 127.938 146.933 159.933C114.938 191.929 114.938 243.804 146.933 275.8C178.929 307.796 230.804 307.796 262.8 275.8Z" fill="white"/>
</mask>
<g mask="url(#mask1_1557_705)">
<path d="M149.091 277.377C155.386 275.488 158.958 268.854 157.069 262.559C155.181 256.264 148.547 252.692 142.252 254.581C135.957 256.469 132.385 263.104 134.273 269.399C136.162 275.694 142.796 279.266 149.091 277.377Z" fill="url(#paint26_linear_1557_705)" fill-opacity="0.3"/>
<path opacity="0.3" d="M142.557 277.486C136.207 275.786 132.437 269.256 134.147 262.906C135.847 256.556 142.377 252.786 148.727 254.496C155.077 256.206 158.847 262.726 157.137 269.076C155.437 275.426 148.907 279.196 142.557 277.486Z" stroke="url(#paint27_linear_1557_705)" stroke-width="0.79" stroke-miterlimit="10"/>
</g>
</g>
<g opacity="0.5">
<path d="M604.49 228.33L505.94 306.22L599.1 221.95C600.81 220.4 603.45 220.53 605 222.25C606.55 223.96 606.42 226.6 604.7 228.15C604.63 228.21 604.56 228.27 604.49 228.33Z" fill="url(#paint28_linear_1557_705)"/>
</g>
<path d="M1440 990V265.68C1387.49 267.37 1335.4 285.29 1292.96 313.75C1236.35 351.71 1195.92 406.96 1170.26 466.24C1152.4 507.5 1140.88 551.63 1114.01 588.7C1051.07 675.55 922.82 700.61 807.86 702.44C692.89 704.28 573.07 691.24 466.78 730.82C380.37 763 312.53 827.41 264.4 899.73C245.16 928.64 228.71 958.99 214 989.98H1440V990Z" fill="url(#paint29_linear_1557_705)" fill-opacity="0.5"/>
<g opacity="0.5">
<path d="M620.74 84.1504L491 223.82L657.13 306.93L706.86 132.49L620.74 84.1504Z" fill="url(#paint30_linear_1557_705)"/>
<path d="M686.5 124.65C683.82 129.25 669.25 125.76 653.96 116.85C638.67 107.94 628.44 96.9903 631.12 92.3903C631.96 90.9503 633.96 90.3003 636.79 90.3703C642.99 90.5103 653.16 94.0803 663.66 100.19C674.18 106.32 682.3 113.41 685.48 118.74C686.92 121.16 687.34 123.21 686.51 124.65H686.5Z" fill="#B7AFED"/>
<path d="M737.94 134.28C732.73 143.23 696.92 132.1 657.97 109.41C619.02 86.7203 591.67 61.0703 596.88 52.1203C598.07 50.0803 600.86 49.0803 604.91 49.0303C618.61 48.8603 646.79 59.4903 676.85 76.9903C709.36 95.9303 733.79 116.93 737.95 128.56C738.78 130.86 738.8 132.8 737.95 134.27L737.94 134.28Z" fill="url(#paint31_linear_1557_705)" fill-opacity="0.7"/>
<path d="M737.94 134.28C732.73 143.23 696.92 132.1 657.97 109.41C619.02 86.7203 591.67 61.0703 596.88 52.1203C598.07 50.0803 600.86 49.0803 604.91 49.0303C604.71 49.5803 604.04 50.4303 604.34 53.0603C604.21 54.4203 606.77 60.6703 619.23 71.9603C630.41 82.0903 646.19 93.2703 663.66 103.45C681.13 113.63 698.64 121.83 712.98 126.56C723.26 129.95 729.61 130.76 733.12 130.69C734.78 130.66 736.3 129.96 737.55 128.88C737.68 128.77 737.82 128.66 737.96 128.56C738.79 130.86 738.81 132.8 737.96 134.27L737.94 134.28Z" fill="url(#paint32_linear_1557_705)" fill-opacity="0.5"/>
<path d="M709.49 90.5603L648.34 56.0403C650.09 53.3603 652.57 53.0403 655.54 51.5803C664.5 47.1803 678.01 48.3503 690.33 55.5303C702.65 62.7103 710.35 73.8903 710.94 83.8503C711.12 86.8303 710.65 87.9403 709.49 90.5603Z" fill="url(#paint33_linear_1557_705)"/>
<path d="M716.74 115.51C715.86 116.85 714.3 117.42 713.23 116.79L701.02 109.67L635.73 71.6103L624.56 65.1003C623.35 64.3903 623.3 62.4803 624.47 61.0903L626.32 58.8803C626.81 58.3003 627.44 57.8903 628.09 57.7503L646.87 53.5603C649.04 53.0803 651.12 53.3703 652.79 54.4003L709.94 87.6903C711.51 88.6603 711.76 91.7303 712.26 93.6903L717.25 113.03C717.45 113.8 717.25 114.73 716.74 115.52V115.51Z" fill="url(#paint34_linear_1557_705)" fill-opacity="0.5"/>
<path d="M639.66 60.8305C638.89 61.9205 637.42 62.2005 636.37 61.4605C635.32 60.7205 635.12 59.2305 635.9 58.1505C636.68 57.0705 638.15 56.8005 639.18 57.5305C640.22 58.2605 640.43 59.7405 639.66 60.8305Z" fill="url(#paint35_linear_1557_705)"/>
<path d="M651.08 68.7007C650.34 69.8107 648.87 70.1207 647.81 69.4107C646.75 68.6907 646.5 67.2207 647.25 66.1207C648 65.0207 649.47 64.7007 650.52 65.4107C651.57 66.1207 651.82 67.6007 651.08 68.7007Z" fill="url(#paint36_linear_1557_705)"/>
<path d="M662.7 76.2705C661.99 77.4005 660.53 77.7505 659.45 77.0605C658.37 76.3705 658.08 74.9005 658.8 73.7905C659.53 72.6705 660.98 72.3205 662.05 73.0005C663.12 73.6805 663.41 75.1505 662.7 76.2705Z" fill="url(#paint37_linear_1557_705)"/>
<path d="M674.51 83.5406C673.83 84.6806 672.37 85.1005 671.27 84.4305C670.18 83.7605 669.85 82.2905 670.55 81.1505C671.24 80.0105 672.68 79.6206 673.77 80.2906C674.86 80.9506 675.2 82.3906 674.51 83.5406Z" fill="url(#paint38_linear_1557_705)"/>
<path d="M686.55 90.4208C685.91 91.5908 684.48 92.0307 683.36 91.4107C682.24 90.7807 681.86 89.3308 682.52 88.1708C683.18 87.0108 684.61 86.5707 685.71 87.1807C686.81 87.7907 687.19 89.2508 686.55 90.4208Z" fill="url(#paint39_linear_1557_705)"/>
<path d="M698.84 96.8308C698.25 98.0308 696.84 98.5408 695.68 97.9808C694.52 97.4108 694.1 95.9408 694.71 94.7608C695.32 93.5708 696.71 93.1008 697.85 93.6608C698.99 94.2108 699.43 95.6308 698.84 96.8308Z" fill="url(#paint40_linear_1557_705)"/>
<path d="M711.44 102.62C710.93 103.85 709.55 104.43 708.37 103.9C707.19 103.38 706.67 101.97 707.21 100.75C707.75 99.5304 709.13 98.9604 710.28 99.4704C711.43 99.9804 711.95 101.39 711.44 102.62Z" fill="url(#paint41_linear_1557_705)"/>
<path d="M631.11 92.3901L563.67 180.32L645.54 228.71L686.5 124.65L631.11 92.3901Z" fill="url(#paint42_linear_1557_705)"/>
</g>
<path opacity="0.64" d="M1027.69 227.86C1027.69 228.27 1027.36 228.61 1026.94 228.61C1026.52 228.61 1026.19 228.28 1026.19 227.86C1026.19 227.44 1026.52 227.11 1026.94 227.11C1027.36 227.11 1027.69 227.44 1027.69 227.86Z" fill="white"/>
<path d="M241.66 561.26C232.45 561.26 232.43 575.58 241.66 575.58C250.89 575.58 250.89 561.26 241.66 561.26Z" fill="url(#paint43_linear_1557_705)" fill-opacity="0.2"/>
<g opacity="0.7">
<path opacity="0.3" d="M761.45 377.51C748.82 373.26 734.24 379.17 724.37 388.14C699.27 410.95 591.69 567.63 591.99 569.94C591.99 569.94 690.85 506.62 715.41 491.21C739.57 476.06 781.91 458.35 790.51 429.7C797.54 406.3 781.74 384.33 761.45 377.51Z" fill="url(#paint44_linear_1557_705)"/>
<path d="M1324.02 230.606C1323.69 246.626 1310.44 259.346 1294.42 259.016C1278.4 258.686 1265.68 245.436 1266.01 229.416C1266.34 213.396 1279.59 200.676 1295.61 201.006C1311.63 201.336 1324.35 214.586 1324.02 230.606Z" fill="url(#paint45_linear_1557_705)" fill-opacity="0.7"/>
</g>
<g opacity="0.5">
<path d="M1019.59 489.771L864 612.731L1011.07 479.701C1013.77 477.261 1017.94 477.471 1020.39 480.171C1022.83 482.871 1022.62 487.041 1019.92 489.491C1019.82 489.581 1019.69 489.691 1019.59 489.771Z" fill="url(#paint46_linear_1557_705)"/>
</g>
<path opacity="0.7" d="M245.12 698.44C245.29 698.44 245.47 698.45 245.63 698.48C245.77 698.5 245.9 698.39 245.94 698.23C247.36 690.95 251.6 686.29 258.07 684.96C258.22 684.93 258.32 684.77 258.3 684.59C258.3 684.54 258.29 684.5 258.28 684.45C258.26 684.31 258.17 684.2 258.05 684.18C251.2 682.77 246.84 677.6 245.71 669.54C245.64 669.54 245.56 669.56 245.49 669.56C245.44 669.56 245.39 669.56 245.34 669.56C245.21 669.56 245.09 669.67 245.07 669.83C243.85 677.88 239.37 682.97 232.38 684.25C232.26 684.27 232.16 684.38 232.15 684.52C232.13 684.7 232.23 684.86 232.38 684.88C239.12 686.11 243.52 690.89 244.92 698.45C244.99 698.44 245.05 698.43 245.12 698.42V698.44Z" fill="#CA45F5" fill-opacity="0.7"/>
<path d="M997.76 359.64C997.88 359.64 998 359.65 998.11 359.67C998.21 359.69 998.3 359.61 998.32 359.5C999.29 354.55 1002.17 351.38 1006.56 350.48C1006.66 350.46 1006.73 350.35 1006.71 350.23C1006.71 350.2 1006.71 350.17 1006.7 350.13C1006.69 350.04 1006.62 349.96 1006.54 349.94C1001.88 348.98 998.92 345.47 998.15 339.99C998.1 339.99 998.05 340 998 340.01C997.97 340.01 997.93 340.01 997.9 340.01C997.81 340.01 997.73 340.09 997.72 340.19C996.89 345.66 993.85 349.12 989.09 349.99C989.01 350 988.94 350.08 988.93 350.18C988.92 350.3 988.99 350.41 989.09 350.43C993.67 351.27 996.66 354.52 997.62 359.65C997.67 359.65 997.71 359.64 997.76 359.63V359.64Z" fill="#CA45F5" fill-opacity="0.7"/>
<path opacity="0.7" d="M65.33 282.93C65.45 282.93 65.56 282.93 65.68 282.96C65.78 282.98 65.87 282.9 65.89 282.79C66.86 277.84 69.74 274.67 74.13 273.77C74.23 273.75 74.3 273.64 74.28 273.52C74.28 273.49 74.28 273.46 74.27 273.42C74.26 273.33 74.19 273.25 74.11 273.24C69.45 272.28 66.49 268.77 65.72 263.29C65.67 263.29 65.62 263.3 65.57 263.31C65.54 263.31 65.5 263.31 65.47 263.31C65.38 263.31 65.3 263.39 65.29 263.49C64.46 268.96 61.42 272.42 56.66 273.29C56.58 273.3 56.51 273.38 56.5 273.48C56.49 273.6 56.56 273.71 56.66 273.73C61.24 274.57 64.23 277.82 65.19 282.95C65.24 282.95 65.28 282.94 65.33 282.93Z" fill="#CA45F5" fill-opacity="0.7"/>
<g opacity="0.6">
<path d="M1140.42 545.85C1140.42 547.18 1139.34 548.25 1138.02 548.25C1136.7 548.25 1135.62 547.17 1135.62 545.85C1135.62 544.53 1136.7 543.45 1138.02 543.45C1139.34 543.45 1140.42 544.53 1140.42 545.85Z" fill="white"/>
</g>
<g opacity="0.58">
<path d="M1093.85 524.83C1094.41 524.83 1094.86 524.378 1094.86 523.82C1094.86 523.262 1094.41 522.81 1093.85 522.81C1093.29 522.81 1092.84 523.262 1092.84 523.82C1092.84 524.378 1093.29 524.83 1093.85 524.83Z" fill="white"/>
</g>
<path opacity="0.7" d="M50.44 130.16C51.9422 130.16 53.16 128.942 53.16 127.44C53.16 125.938 51.9422 124.72 50.44 124.72C48.9378 124.72 47.72 125.938 47.72 127.44C47.72 128.942 48.9378 130.16 50.44 130.16Z" fill="white"/>
<path opacity="0.76" d="M102.9 143.6C103.778 143.6 104.49 142.888 104.49 142.01C104.49 141.132 103.778 140.42 102.9 140.42C102.022 140.42 101.31 141.132 101.31 142.01C101.31 142.888 102.022 143.6 102.9 143.6Z" fill="white"/>
<path opacity="0.53" d="M412.47 53.12C412.47 54.27 411.54 55.2 410.39 55.2C409.24 55.2 408.31 54.27 408.31 53.12C408.31 51.97 409.24 51.04 410.39 51.04C411.54 51.04 412.47 51.97 412.47 53.12Z" fill="white"/>
<path opacity="0.74" d="M1125.84 701.61C1125.84 703.18 1124.57 704.45 1123 704.45C1121.43 704.45 1120.16 703.18 1120.16 701.61C1120.16 700.04 1121.43 698.77 1123 698.77C1124.57 698.77 1125.84 700.04 1125.84 701.61Z" fill="white"/>
<path opacity="0.76" d="M822.18 714.72C822.18 715.99 821.15 717.01 819.89 717.01C818.63 717.01 817.6 715.98 817.6 714.72C817.6 713.46 818.63 712.43 819.89 712.43C821.15 712.43 822.18 713.46 822.18 714.72Z" fill="white"/>
<path opacity="0.8" d="M36.67 56.0302C36.67 56.4802 36.3101 56.8402 35.8601 56.8402C35.4101 56.8402 35.05 56.4802 35.05 56.0302C35.05 55.5802 35.4101 55.2202 35.8601 55.2202C36.3101 55.2202 36.67 55.5802 36.67 56.0302Z" fill="white"/>
<path opacity="0.44" d="M428.57 630.6C381.98 630.6 381.9 703.01 428.57 703.01C475.24 703.01 475.24 630.6 428.57 630.6Z" fill="url(#paint47_linear_1557_705)"/>
<path d="M428.57 638.41C393.28 638.41 393.22 695.2 428.57 695.2C463.92 695.2 463.92 638.41 428.57 638.41Z" fill="url(#paint48_linear_1557_705)" fill-opacity="0.7"/>
<path opacity="0.7" d="M95.4541 862.84C95.6841 862.84 95.9141 862.86 96.1441 862.9C96.3341 862.93 96.514 862.78 96.554 862.56C98.464 852.77 104.164 846.51 112.854 844.73C113.054 844.69 113.194 844.47 113.154 844.24C113.154 844.18 113.134 844.11 113.134 844.05C113.114 843.86 112.984 843.72 112.824 843.68C103.614 841.78 97.764 834.84 96.234 824C96.134 824.01 96.034 824.03 95.934 824.03C95.864 824.03 95.794 824.03 95.734 824.03C95.554 824.03 95.404 824.18 95.374 824.39C93.734 835.2 87.714 842.05 78.314 843.77C78.154 843.8 78.024 843.95 78.004 844.14C77.974 844.38 78.114 844.59 78.314 844.63C87.374 846.28 93.294 852.71 95.174 862.87C95.264 862.86 95.3541 862.84 95.4441 862.83L95.4541 862.84Z" fill="#CA45F5" fill-opacity="0.7"/>
</g>
</g>
<defs>
<linearGradient id="paint0_linear_1557_705" x1="337.736" y1="301.593" x2="181.732" y2="203.273" gradientUnits="userSpaceOnUse">
<stop stop-color="#222AFD"/>
<stop offset="0.99" stop-color="#9781FD"/>
</linearGradient>
<linearGradient id="paint1_linear_1557_705" x1="141.03" y1="205.418" x2="253.576" y2="140.492" gradientUnits="userSpaceOnUse">
<stop stop-color="#DCDFFD"/>
<stop offset="0.99" stop-color="#9781FD"/>
</linearGradient>
<linearGradient id="paint2_linear_1557_705" x1="171.441" y1="162.696" x2="244.716" y2="284.671" gradientUnits="userSpaceOnUse">
<stop stop-color="#222AFD"/>
<stop offset="0.99" stop-color="#9781FD"/>
</linearGradient>
<linearGradient id="paint3_linear_1557_705" x1="134.788" y1="201.422" x2="140.381" y2="182.819" gradientUnits="userSpaceOnUse">
<stop stop-color="#222AFD"/>
<stop offset="0.99" stop-color="#9781FD"/>
</linearGradient>
<linearGradient id="paint4_linear_1557_705" x1="232.523" y1="278.705" x2="242.85" y2="244.394" gradientUnits="userSpaceOnUse">
<stop stop-color="#222AFD"/>
<stop offset="0.99" stop-color="#9781FD"/>
</linearGradient>
<linearGradient id="paint5_linear_1557_705" x1="198.48" y1="183.971" x2="205.665" y2="160.084" gradientUnits="userSpaceOnUse">
<stop stop-color="#222AFD"/>
<stop offset="0.99" stop-color="#9781FD"/>
</linearGradient>
<linearGradient id="paint6_linear_1557_705" x1="271.458" y1="308.333" x2="235.635" y2="282.878" gradientUnits="userSpaceOnUse">
<stop stop-color="#222AFD"/>
<stop offset="0.99" stop-color="#9781FD"/>
</linearGradient>
<linearGradient id="paint7_linear_1557_705" x1="211.098" y1="250.554" x2="180.217" y2="262.424" gradientUnits="userSpaceOnUse">
<stop stop-color="#222AFD"/>
<stop offset="0.05" stop-color="#2B31FD"/>
<stop offset="0.25" stop-color="#524DFD"/>
<stop offset="0.44" stop-color="#7064FD"/>
<stop offset="0.63" stop-color="#8574FD"/>
<stop offset="0.82" stop-color="#927DFD"/>
<stop offset="0.99" stop-color="#9781FD"/>
</linearGradient>
<linearGradient id="paint8_linear_1557_705" x1="198.149" y1="245.697" x2="191.89" y2="269.022" gradientUnits="userSpaceOnUse">
<stop stop-color="white"/>
<stop offset="0.99" stop-color="white" stop-opacity="0"/>
</linearGradient>
<linearGradient id="paint9_linear_1557_705" x1="185.033" y1="177.072" x2="154.152" y2="188.942" gradientUnits="userSpaceOnUse">
<stop stop-color="#222AFD"/>
<stop offset="0.05" stop-color="#2B31FD"/>
<stop offset="0.25" stop-color="#524DFD"/>
<stop offset="0.44" stop-color="#7064FD"/>
<stop offset="0.63" stop-color="#8574FD"/>
<stop offset="0.82" stop-color="#927DFD"/>
<stop offset="0.99" stop-color="#9781FD"/>
</linearGradient>
<linearGradient id="paint10_linear_1557_705" x1="172.29" y1="171.438" x2="165.824" y2="195.536" gradientUnits="userSpaceOnUse">
<stop stop-color="white"/>
<stop offset="0.99" stop-color="white" stop-opacity="0"/>
</linearGradient>
<linearGradient id="paint11_linear_1557_705" x1="213.3" y1="205.599" x2="199.978" y2="210.721" gradientUnits="userSpaceOnUse">
<stop stop-color="#222AFD"/>
<stop offset="0.05" stop-color="#2B31FD"/>
<stop offset="0.25" stop-color="#524DFD"/>
<stop offset="0.44" stop-color="#7064FD"/>
<stop offset="0.63" stop-color="#8574FD"/>
<stop offset="0.82" stop-color="#927DFD"/>
<stop offset="0.99" stop-color="#9781FD"/>
</linearGradient>
<linearGradient id="paint12_linear_1557_705" x1="207.6" y1="203.142" x2="204.809" y2="213.544" gradientUnits="userSpaceOnUse">
<stop stop-color="white"/>
<stop offset="0.99" stop-color="white" stop-opacity="0"/>
</linearGradient>
<linearGradient id="paint13_linear_1557_705" x1="197.285" y1="151.4" x2="192.581" y2="153.213" gradientUnits="userSpaceOnUse">
<stop stop-color="#222AFD"/>
<stop offset="0.05" stop-color="#2B31FD"/>
<stop offset="0.25" stop-color="#524DFD"/>
<stop offset="0.44" stop-color="#7064FD"/>
<stop offset="0.63" stop-color="#8574FD"/>
<stop offset="0.82" stop-color="#927DFD"/>
<stop offset="0.99" stop-color="#9781FD"/>
</linearGradient>
<linearGradient id="paint14_linear_1557_705" x1="195.234" y1="150.561" x2="194.247" y2="154.241" gradientUnits="userSpaceOnUse">
<stop stop-color="white"/>
<stop offset="0.99" stop-color="white" stop-opacity="0"/>
</linearGradient>
<linearGradient id="paint15_linear_1557_705" x1="162.409" y1="158.347" x2="165.597" y2="156.508" gradientUnits="userSpaceOnUse">
<stop stop-color="#DCDFFD"/>
<stop offset="0.99" stop-color="#9781FD"/>
</linearGradient>
<linearGradient id="paint16_linear_1557_705" x1="162.409" y1="158.346" x2="165.597" y2="156.507" gradientUnits="userSpaceOnUse">
<stop stop-color="#DCDFFD"/>
<stop offset="0.99" stop-color="#9781FD"/>
</linearGradient>
<linearGradient id="paint17_linear_1557_705" x1="235.798" y1="153.842" x2="223.306" y2="141.353" gradientUnits="userSpaceOnUse">
<stop stop-color="#DCDFFD"/>
<stop offset="0.99" stop-color="#9781FD"/>
</linearGradient>
<linearGradient id="paint18_linear_1557_705" x1="219.872" y1="236.061" x2="164.373" y2="218.124" gradientUnits="userSpaceOnUse">
<stop stop-color="#DCDFFD"/>
<stop offset="0.99" stop-color="#9781FD"/>
</linearGradient>
<linearGradient id="paint19_linear_1557_705" x1="219.877" y1="236.07" x2="164.373" y2="218.124" gradientUnits="userSpaceOnUse">
<stop stop-color="#DCDFFD"/>
<stop offset="0.99" stop-color="#9781FD"/>
</linearGradient>
<linearGradient id="paint20_linear_1557_705" x1="160.857" y1="217.693" x2="147.534" y2="222.816" gradientUnits="userSpaceOnUse">
<stop stop-color="#222AFD"/>
<stop offset="0.05" stop-color="#2B31FD"/>
<stop offset="0.25" stop-color="#524DFD"/>
<stop offset="0.44" stop-color="#7064FD"/>
<stop offset="0.63" stop-color="#8574FD"/>
<stop offset="0.82" stop-color="#927DFD"/>
<stop offset="0.99" stop-color="#9781FD"/>
</linearGradient>
<linearGradient id="paint21_linear_1557_705" x1="155.161" y1="215.246" x2="152.373" y2="225.638" gradientUnits="userSpaceOnUse">
<stop stop-color="white"/>
<stop offset="0.99" stop-color="white" stop-opacity="0"/>
</linearGradient>
<linearGradient id="paint22_linear_1557_705" x1="265.828" y1="228.29" x2="237.295" y2="228.694" gradientUnits="userSpaceOnUse">
<stop stop-color="#222AFD"/>
<stop offset="0.05" stop-color="#2B31FD"/>
<stop offset="0.25" stop-color="#524DFD"/>
<stop offset="0.44" stop-color="#7064FD"/>
<stop offset="0.63" stop-color="#8574FD"/>
<stop offset="0.82" stop-color="#927DFD"/>
<stop offset="0.99" stop-color="#9781FD"/>
</linearGradient>
<linearGradient id="paint23_linear_1557_705" x1="244.966" y1="219.057" x2="259.791" y2="237.842" gradientUnits="userSpaceOnUse">
<stop stop-color="white"/>
<stop offset="0.99" stop-color="white" stop-opacity="0"/>
</linearGradient>
<linearGradient id="paint24_linear_1557_705" x1="264.926" y1="171.615" x2="215.891" y2="190.458" gradientUnits="userSpaceOnUse">
<stop stop-color="#222AFD"/>
<stop offset="0.05" stop-color="#2B31FD"/>
<stop offset="0.25" stop-color="#524DFD"/>
<stop offset="0.44" stop-color="#7064FD"/>
<stop offset="0.63" stop-color="#8574FD"/>
<stop offset="0.82" stop-color="#927DFD"/>
<stop offset="0.99" stop-color="#9781FD"/>
</linearGradient>
<linearGradient id="paint25_linear_1557_705" x1="244.131" y1="162.459" x2="233.858" y2="200.745" gradientUnits="userSpaceOnUse">
<stop stop-color="white"/>
<stop offset="0.99" stop-color="white" stop-opacity="0"/>
</linearGradient>
<linearGradient id="paint26_linear_1557_705" x1="161.716" y1="259.823" x2="131.277" y2="271.518" gradientUnits="userSpaceOnUse">
<stop stop-color="#222AFD"/>
<stop offset="0.05" stop-color="#2B31FD"/>
<stop offset="0.25" stop-color="#524DFD"/>
<stop offset="0.44" stop-color="#7064FD"/>
<stop offset="0.63" stop-color="#8574FD"/>
<stop offset="0.82" stop-color="#927DFD"/>
<stop offset="0.99" stop-color="#9781FD"/>
</linearGradient>
<linearGradient id="paint27_linear_1557_705" x1="148.771" y1="254.149" x2="142.396" y2="277.908" gradientUnits="userSpaceOnUse">
<stop stop-color="white"/>
<stop offset="0.99" stop-color="white" stop-opacity="0"/>
</linearGradient>
<linearGradient id="paint28_linear_1557_705" x1="609.18" y1="221.031" x2="511.975" y2="294.836" gradientUnits="userSpaceOnUse">
<stop stop-color="#CA64C1"/>
<stop offset="0.99" stop-color="#8227E6"/>
</linearGradient>
<linearGradient id="paint29_linear_1557_705" x1="1349.9" y1="1498.41" x2="750.6" y2="500.64" gradientUnits="userSpaceOnUse">
<stop stop-color="#352688"/>
<stop offset="0.99" stop-color="#9781FD"/>
</linearGradient>
<linearGradient id="paint30_linear_1557_705" x1="778.529" y1="-48.7067" x2="628.795" y2="181.296" gradientUnits="userSpaceOnUse">
<stop stop-color="white"/>
<stop offset="0.99" stop-color="white" stop-opacity="0"/>
</linearGradient>
<linearGradient id="paint31_linear_1557_705" x1="678.944" y1="74.8748" x2="664.674" y2="97.566" gradientUnits="userSpaceOnUse">
<stop stop-color="#222AFD"/>
<stop offset="0.99" stop-color="#9781FD"/>
</linearGradient>
<linearGradient id="paint32_linear_1557_705" x1="667.538" y1="137.551" x2="667.292" y2="48.8652" gradientUnits="userSpaceOnUse">
<stop stop-color="#222AFD"/>
<stop offset="0.99" stop-color="#9781FD"/>
</linearGradient>
<linearGradient id="paint33_linear_1557_705" x1="653.775" y1="46.7201" x2="714.443" y2="82.0584" gradientUnits="userSpaceOnUse">
<stop stop-color="#DCDFFD"/>
<stop offset="0.99" stop-color="#9781FD"/>
</linearGradient>
<linearGradient id="paint34_linear_1557_705" x1="668.21" y1="92.728" x2="684.279" y2="62.6367" gradientUnits="userSpaceOnUse">
<stop stop-color="#222AFD"/>
<stop offset="0.99" stop-color="#9781FD"/>
</linearGradient>
<linearGradient id="paint35_linear_1557_705" x1="634.434" y1="69.3745" x2="638.869" y2="56.2767" gradientUnits="userSpaceOnUse">
<stop stop-color="white"/>
<stop offset="0.99" stop-color="white" stop-opacity="0"/>
</linearGradient>
<linearGradient id="paint36_linear_1557_705" x1="645.671" y1="73.4085" x2="650.754" y2="64.6811" gradientUnits="userSpaceOnUse">
<stop stop-color="white"/>
<stop offset="0.99" stop-color="white" stop-opacity="0"/>
</linearGradient>
<linearGradient id="paint37_linear_1557_705" x1="655.489" y1="80.493" x2="662.88" y2="72.8316" gradientUnits="userSpaceOnUse">
<stop stop-color="white"/>
<stop offset="0.99" stop-color="white" stop-opacity="0"/>
</linearGradient>
<linearGradient id="paint38_linear_1557_705" x1="669.757" y1="88.3638" x2="673.814" y2="79.5708" gradientUnits="userSpaceOnUse">
<stop stop-color="white"/>
<stop offset="0.99" stop-color="white" stop-opacity="0"/>
</linearGradient>
<linearGradient id="paint39_linear_1557_705" x1="682.164" y1="94.0635" x2="685.234" y2="87.8783" gradientUnits="userSpaceOnUse">
<stop stop-color="white"/>
<stop offset="0.99" stop-color="white" stop-opacity="0"/>
</linearGradient>
<linearGradient id="paint40_linear_1557_705" x1="693.336" y1="101.705" x2="697.614" y2="94.3604" gradientUnits="userSpaceOnUse">
<stop stop-color="white"/>
<stop offset="0.99" stop-color="white" stop-opacity="0"/>
</linearGradient>
<linearGradient id="paint41_linear_1557_705" x1="704.727" y1="113.64" x2="710.411" y2="98.8744" gradientUnits="userSpaceOnUse">
<stop stop-color="white"/>
<stop offset="0.99" stop-color="white" stop-opacity="0"/>
</linearGradient>
<linearGradient id="paint42_linear_1557_705" x1="737.269" y1="-25.0885" x2="620.851" y2="176.363" gradientUnits="userSpaceOnUse">
<stop stop-color="white"/>
<stop offset="0.99" stop-color="white" stop-opacity="0"/>
</linearGradient>
<linearGradient id="paint43_linear_1557_705" x1="238.59" y1="575.35" x2="254.72" y2="538.85" gradientUnits="userSpaceOnUse">
<stop stop-color="#222AFD"/>
<stop offset="0.99" stop-color="#9781FD"/>
</linearGradient>
<linearGradient id="paint44_linear_1557_705" x1="794.752" y1="378.483" x2="602.872" y2="557.678" gradientUnits="userSpaceOnUse">
<stop stop-color="white"/>
<stop offset="0.99" stop-color="white" stop-opacity="0"/>
</linearGradient>
<linearGradient id="paint45_linear_1557_705" x1="1289.47" y1="256.292" x2="1311.71" y2="152.2" gradientUnits="userSpaceOnUse">
<stop stop-color="#3F4CFD"/>
<stop offset="1" stop-color="#FD00BE"/>
</linearGradient>
<linearGradient id="paint46_linear_1557_705" x1="1027.01" y1="478.235" x2="873.543" y2="594.77" gradientUnits="userSpaceOnUse">
<stop stop-color="#CA64C1"/>
<stop offset="0.99" stop-color="#8227E6"/>
</linearGradient>
<linearGradient id="paint47_linear_1557_705" x1="413.88" y1="740.99" x2="439.24" y2="612.87" gradientUnits="userSpaceOnUse">
<stop stop-color="white"/>
<stop offset="0.99" stop-color="white" stop-opacity="0"/>
</linearGradient>
<linearGradient id="paint48_linear_1557_705" x1="413.4" y1="784.97" x2="433.27" y2="630.17" gradientUnits="userSpaceOnUse">
<stop stop-color="#222AFD"/>
<stop offset="0.99" stop-color="#9781FD"/>
</linearGradient>
<clipPath id="clip0_1557_705">
<rect width="1440" height="990" fill="white"/>
</clipPath>
</defs>
</svg>
