<svg width="169" height="169" viewBox="0 0 169 169" fill="none" xmlns="http://www.w3.org/2000/svg">
<path d="M12.9065 169C7.93028 167.595 4.9297 163.68 1.86298 160.001C-0.7615 156.851 -0.513518 151.907 1.98284 148.616C2.51187 147.918 3.11116 147.265 3.73111 146.645C38.1015 112.252 72.476 77.8633 106.85 43.4788C110.777 39.5517 115.46 38.3984 119.469 41.2465C122.63 43.4912 125.478 46.4344 127.776 49.5719C130.26 52.9616 129.516 57.4756 126.809 60.733C126.284 61.3655 125.697 61.9525 125.114 62.5353C91.3268 96.3411 57.5268 130.139 23.7557 163.961C21.5569 166.164 19.3375 168.244 16.2046 168.996H12.9065V169ZM86.5118 73.2087C86.1646 73.5435 85.7265 73.9445 85.3091 74.362C59.8082 99.8672 34.3115 125.372 8.81062 150.878C8.45931 151.229 8.09147 151.564 7.76909 151.936C6.2936 153.635 6.2812 155.268 7.80629 156.934C8.88088 158.108 10.0464 159.203 11.1747 160.332C13.9108 163.068 15.3119 163.064 18.0562 160.319C43.5902 134.773 69.1282 109.226 94.6621 83.6753C95.0754 83.2619 95.4722 82.8279 95.7946 82.4889C92.6576 79.3514 89.6322 76.3296 86.5118 73.2128V73.2087ZM100.754 77.4954C107.685 70.5879 114.67 63.6721 121.585 56.6861C122.998 55.2599 122.891 53.4535 121.527 51.9571C120.341 50.6591 119.064 49.4479 117.815 48.2078C115.36 45.7647 113.893 45.7688 111.409 48.2532C105.11 54.5448 98.8158 60.8405 92.5253 67.1403C92.1451 67.5206 91.7938 67.9299 91.5086 68.2358C94.6043 71.3361 97.6255 74.3578 100.758 77.4954H100.754Z" fill="white"/>
<path d="M168.999 57.087C167.974 58.9265 166.387 59.4598 164.337 59.4309C158.464 59.3441 152.591 59.4391 146.718 59.3606C145.738 59.3482 144.622 59.0464 143.821 58.5049C142.7 57.7526 142.366 56.4876 142.812 55.1276C143.304 53.6478 144.399 52.8954 145.895 52.8251C147.648 52.7425 149.408 52.7962 151.165 52.7921C155.554 52.7921 159.948 52.8623 164.337 52.759C166.387 52.7135 167.974 53.2592 168.999 55.0987V57.0788V57.087Z" fill="white"/>
<path d="M88.9544 35.9967C88.5246 35.7363 87.5699 35.3808 86.9045 34.7276C82.4284 30.3334 77.9978 25.8979 73.5919 21.4335C71.9635 19.7841 71.885 17.8247 73.2489 16.4482C74.6211 15.0634 76.5801 15.1254 78.2292 16.7582C82.6929 21.1648 87.1111 25.6168 91.5376 30.0565C92.6742 31.1974 93.2115 32.5243 92.5089 34.091C91.9385 35.3601 90.897 35.9884 88.9503 35.9967H88.9544Z" fill="white"/>
<path d="M149.557 15.4933C152.649 15.4478 154.277 18.0934 153.087 20.2554C152.802 20.7762 152.397 21.2475 151.975 21.6691C147.718 25.9476 143.461 30.2219 139.167 34.4672C138.596 35.0335 137.902 35.5957 137.162 35.8396C135.807 36.2778 134.542 35.9058 133.657 34.7111C132.785 33.533 132.727 32.2722 133.504 31.0279C133.79 30.5691 134.166 30.1516 134.55 29.7671C138.77 25.5301 142.977 21.2806 147.251 17.0931C148.032 16.3283 149.074 15.824 149.561 15.4974L149.557 15.4933Z" fill="white"/>
<path d="M149.727 96.7338C149.206 96.4155 148.206 96.0311 147.499 95.3408C143.06 90.9879 138.671 86.5855 134.298 82.1665C132.682 80.5295 132.562 78.5536 133.876 77.1771C135.232 75.7592 137.294 75.8543 138.981 77.5284C143.399 81.9019 147.78 86.3085 152.169 90.7151C153.293 91.8436 153.913 93.1416 153.203 94.7372C152.632 96.0104 151.603 96.647 149.723 96.738L149.727 96.7338Z" fill="white"/>
<path d="M116.195 13.3437C116.195 16.3696 116.212 19.3955 116.191 22.4173C116.175 24.8108 114.856 26.3609 112.897 26.3568C110.934 26.3568 109.611 24.8108 109.603 22.4173C109.586 16.258 109.586 10.0946 109.603 3.93533C109.611 1.54602 110.934 0 112.897 0C114.856 0 116.175 1.54602 116.191 3.93946C116.212 7.07284 116.195 10.2104 116.195 13.3437Z" fill="white"/>
<path d="M69.9962 59.3978C66.9171 59.3978 63.838 59.4144 60.7589 59.3937C58.3658 59.3772 56.8201 58.0585 56.8242 56.0991C56.8242 54.1356 58.37 52.8128 60.763 52.8045C66.9212 52.788 73.0795 52.788 79.2377 52.8045C81.6307 52.8128 83.1724 54.1356 83.1724 56.0991C83.1724 58.0626 81.6307 59.3772 79.2377 59.3937C76.1586 59.4144 73.0795 59.3978 70.0004 59.3978H69.9962Z" fill="white"/>
<path d="M116.195 99.1727C116.195 102.199 116.212 105.225 116.191 108.246C116.175 110.644 114.86 112.19 112.901 112.19C110.938 112.19 109.611 110.648 109.603 108.255C109.582 102.095 109.587 95.936 109.603 89.7726C109.611 87.3792 110.93 85.8373 112.893 85.829C114.852 85.8207 116.175 87.3709 116.191 89.7643C116.212 92.8977 116.195 96.0352 116.195 99.1686V99.1727Z" fill="white"/>
<path d="M62.999 9.35056C63.0279 7.54824 64.4786 6.14277 66.2889 6.1717C68.0785 6.20064 69.5002 7.67639 69.4672 9.4663C69.4341 11.2479 67.9462 12.6865 66.169 12.6534C64.3753 12.6203 62.97 11.1611 62.999 9.34642V9.35056Z" fill="white"/>
<path d="M162.804 9.46629C162.775 11.2562 161.299 12.6823 159.51 12.6493C157.728 12.6162 156.294 11.1322 156.323 9.35054C156.352 7.56476 157.831 6.14275 159.625 6.16756C161.415 6.19236 162.832 7.66397 162.804 9.46629Z" fill="white"/>
<path d="M159.547 106.014C157.745 106.006 156.31 104.559 156.323 102.761C156.335 100.987 157.815 99.52 159.588 99.5324C161.369 99.5406 162.82 101.016 162.808 102.802C162.799 104.604 161.353 106.026 159.547 106.014Z" fill="white"/>
</svg>
