<svg width="150" height="150" viewBox="0 0 150 150" fill="none" xmlns="http://www.w3.org/2000/svg">
<path d="M0.00775146 140.317C0.917813 138.564 2.43328 137.978 4.28075 138.282C6.3196 138.622 7.43667 137.865 8.22174 135.923C9.2607 133.357 10.6668 130.939 11.8971 128.448C12.4908 127.245 13.4009 126.545 14.7718 126.553C26.6651 126.616 38.2499 124.514 49.7409 121.679C56.3769 120.042 62.9309 120.206 69.149 123.311C71.2543 124.362 73.1095 125.913 75.2265 127.334C75.6366 126.959 76.2459 126.338 76.9177 125.803C82.3508 121.491 88.6626 120.03 95.3572 120.917C100.993 121.663 106.536 123.12 112.117 124.276C119.452 125.796 126.877 126.479 134.357 126.51C136.392 126.518 137.626 127.26 138.462 129.096C139.696 131.799 141.142 134.404 142.395 137.099C142.841 138.056 143.407 138.404 144.407 138.282C144.938 138.22 145.485 138.322 146.016 138.263C147.821 138.052 149.137 138.739 150 140.321V142.079C149.137 143.661 147.821 144.165 146.02 144.161C127.139 144.11 108.254 144.137 89.3735 144.11C88.3658 144.11 87.6588 144.391 86.9479 145.102C85.2684 146.782 83.4874 148.367 81.7493 149.988H68.2741C66.5009 148.328 64.7706 146.621 62.9309 145.04C62.3724 144.559 61.5248 144.2 60.7905 144.169C58.2087 144.063 55.6192 144.13 53.0335 144.126C50.6275 144.126 49.2683 143.083 49.2448 141.231C49.2214 139.372 50.5923 138.275 52.9632 138.267C55.1114 138.263 57.2596 138.243 59.4039 138.267C65.4072 138.341 63.798 137.462 68.1022 141.931C69.6919 143.583 71.2738 144.38 73.5548 144.161C75.539 143.969 77.7848 144.653 79.4878 143.938C81.2454 143.2 82.5343 141.286 83.9404 139.802C84.9911 138.693 86.159 138.236 87.694 138.24C103.36 138.279 119.027 138.263 134.693 138.263H136.451C135.595 136.525 134.802 135.025 134.111 133.482C133.744 132.666 133.252 132.412 132.349 132.346C127.194 131.971 122.003 131.787 116.91 130.982C110.278 129.932 103.731 128.315 97.1344 127.026C91.6232 125.948 86.3425 126.538 81.5423 129.674C79.4604 131.037 78.0465 132.865 77.902 135.517C77.8122 137.138 76.5272 138.251 75.0117 138.255C73.4962 138.255 72.3284 137.138 72.0784 135.533C71.9456 134.677 71.8323 133.771 71.473 133.002C70.4809 130.865 68.6608 129.545 66.5946 128.565C61.8138 126.292 56.8144 126.018 51.7368 127.241C40.3864 129.975 28.9735 132.252 17.2364 132.404C16.9357 132.404 16.4748 132.521 16.3615 132.728C15.4124 134.498 14.5297 136.302 13.5415 138.271C17.7051 138.271 21.5602 138.282 25.4114 138.263C26.6925 138.255 27.7158 138.685 28.3486 139.817C29.5008 141.88 27.9697 144.114 25.3723 144.122C18.248 144.141 11.1199 144.083 3.99562 144.161C2.19502 144.18 0.874849 143.669 0.0116573 142.079V140.321L0.00775146 140.317Z" fill="white"/>
<path d="M38.9647 144.114C37.3477 144.114 36.008 142.731 36.0509 141.118C36.0939 139.556 37.4102 138.275 38.9725 138.279C40.5895 138.279 41.9331 139.661 41.8863 141.274C41.8433 142.833 40.5192 144.118 38.9647 144.118V144.114Z" fill="white"/>
<path d="M93.4551 0C94.4354 0.867098 95.4588 1.68732 96.3845 2.6052C99.5794 5.76112 102.735 8.9561 105.923 12.1198C106.965 13.1588 107.614 14.2915 106.961 15.7796C106.321 17.2404 105.091 17.6544 103.606 17.5841C102.931 17.5529 102.251 17.5802 101.47 17.5802V31.0671C103.364 31.0671 105.259 30.9616 107.133 31.0827C119.366 31.8951 128.709 37.4219 133.959 48.6551C142.161 66.2119 130.15 87.2136 110.875 89.3579C108.024 89.6743 105.098 89.4243 102.271 89.85C94.826 90.9749 89.889 96.7439 89.6508 104.274C89.4086 111.992 84.2334 117.789 76.6365 118.847C73.4611 119.288 72.1604 118.214 72.0471 115.047C71.6761 104.692 61.9662 99.2788 52.6468 104.27C50.2642 105.544 47.8661 106.626 45.1593 107.044C35.9845 108.457 26.8096 101.771 25.5168 92.5216C25.2278 90.4555 24.8411 88.979 22.8062 87.6745C18.8105 85.1084 18.2363 79.4761 21.0915 75.6093C23.892 71.8168 29.2196 70.8872 33.0746 73.6486C34.0198 74.3282 34.6643 74.3399 35.6564 73.8478C38.1327 72.6136 40.8043 72.0667 43.5774 72.0628C47.1396 72.0589 50.7017 72.0628 54.4865 72.0628C54.4865 70.0435 54.4943 68.0672 54.4747 66.0908C54.4747 65.9307 54.3498 65.6924 54.217 65.6299C52.6937 64.9151 51.4438 63.8918 49.4206 64.1301C34.6292 65.8643 21.2399 57.8143 15.6936 44.0618C7.90927 24.7709 21.0095 2.6755 41.6519 0.265597C42.0307 0.222633 42.4018 0.0898344 42.7767 0C44.8273 0 46.8779 0 48.9285 0C49.198 0.0898344 49.4596 0.222633 49.737 0.257786C55.2247 0.929591 60.1812 2.93329 64.6612 6.15952C65.8525 7.0188 66.7039 8.00308 66.3563 9.57713C66.0087 11.1434 64.8409 11.7097 63.3879 11.9792C59.982 12.6081 57.7088 14.6196 56.9667 17.9864C56.1816 21.5485 57.0799 24.7318 59.9429 27.3448C62.1302 25.1458 64.255 23.0015 66.3954 20.865C68.4655 18.7988 69.813 18.791 71.8558 20.8299C74.9648 23.9311 78.0895 27.0167 81.1595 30.157C81.9172 30.9343 82.6593 31.2936 83.6788 30.9226V17.5763C82.8937 17.5763 82.2141 17.549 81.5344 17.5802C80.0463 17.6505 78.8238 17.2365 78.1832 15.7679C77.5349 14.2759 78.1832 13.151 79.23 12.112C82.4484 8.91314 85.6395 5.68691 88.8696 2.49583C89.7641 1.61702 90.7522 0.831945 91.6975 0C92.2833 0 92.8692 0 93.4551 0ZM77.7184 112.578C78.109 112.449 78.3473 112.398 78.5582 112.297C82.0734 110.59 83.7295 107.751 83.8037 103.872C83.9951 93.8887 91.4826 85.3622 101.357 84.0499C104.438 83.6398 107.598 83.8507 110.688 83.4718C123.671 81.8704 132.971 68.6296 130.213 55.8184C127.893 45.0461 118.062 37.086 106.766 36.9337C100.911 36.8516 95.0526 36.9141 89.1977 36.918C88.8891 36.918 88.5845 36.9923 88.022 37.0665C90.2445 39.2655 92.2911 41.2848 94.3339 43.308C95.3065 44.2688 95.8416 45.3586 95.2869 46.7295C94.7206 48.1356 93.6074 48.6707 92.1466 48.6317C91.3381 48.6121 90.5296 48.6317 89.7641 48.6317V54.5061C91.9318 54.5061 93.9824 54.4475 96.029 54.5178C102.107 54.7287 107.09 59.8219 107.215 65.8955C107.356 72.6331 102.114 77.9099 95.1932 77.9216C78.2106 77.9411 61.224 77.8825 44.2414 77.988C42.1128 77.9997 39.9841 78.7926 37.8671 79.273C37.1133 79.4449 36.8945 79.98 36.8906 80.8002C36.8594 84.3819 35.2228 87.0691 32.0318 88.6939C31.2311 89.104 31.028 89.5532 31.067 90.3656C31.2936 95.0409 34.6292 99.3374 39.2068 100.786C42.8431 101.939 46.1748 101.212 49.4401 99.3608C56.869 95.1503 65.6025 95.8026 71.6292 100.907C75.1874 103.919 77.0349 107.86 77.7223 112.586L77.7184 112.578ZM48.5808 48.6278C47.7684 48.6278 47.0927 48.6004 46.417 48.6317C44.8703 48.7059 43.6087 48.2762 42.9916 46.7217C42.3901 45.2062 43.1244 44.1126 44.1555 43.0893C47.6512 39.617 51.1196 36.1173 54.6271 32.6529C54.9942 32.2896 55.5489 32.1217 56.0449 31.8483C52.2992 28.1494 50.6861 24.1967 50.8618 19.5566C51.0376 14.9008 53.0608 11.1785 56.8417 8.37804C46.9677 3.39418 34.0511 5.9447 26.38 14.2798C18.3574 22.9976 17.0372 35.9221 23.1733 46.003C29.1258 55.7872 40.1325 59.6579 48.5769 58.2752V48.6239L48.5808 48.6278ZM83.7803 48.7293H54.5021C54.5021 51.7056 54.4669 54.5803 54.5177 57.4511C54.5451 58.9548 55.5567 60.1227 56.9823 60.2789C58.0681 60.4 59.1813 60.3023 60.3569 60.3023C60.3569 59.2634 60.3296 58.3924 60.3648 57.5175C60.4351 55.7403 61.6537 54.4943 63.2785 54.4943C64.9034 54.4943 66.1298 55.7403 66.204 57.5136C66.2392 58.4236 66.2118 59.3337 66.2118 60.2398H72.0784C72.0784 59.2634 72.051 58.3885 72.0862 57.5136C72.1565 55.7403 73.379 54.4943 75.0078 54.4943C76.6326 54.4943 77.8551 55.7442 77.9254 57.5175C77.9606 58.4275 77.9332 59.3376 77.9332 60.3297C79.0816 60.3297 80.0541 60.3844 81.015 60.318C82.5968 60.2086 83.7373 59.0603 83.7686 57.4472C83.8272 54.5764 83.7842 51.7017 83.7842 48.7293H83.7803ZM53.26 42.6596H84.956C79.6714 37.3672 74.3516 32.0435 69.0943 26.7824C63.88 32.0084 58.5642 37.336 53.26 42.6596ZM83.7881 72.0238C88.0338 72.0238 92.1232 72.1683 96.197 71.9769C99.2435 71.8324 101.486 68.9811 101.357 65.9307C101.228 62.8841 98.7631 60.4351 95.6736 60.3492C93.8222 60.2984 91.967 60.2828 90.1195 60.3844C89.643 60.4117 89.1079 60.8765 88.7485 61.2749C87.9088 62.2084 87.3581 63.677 86.3386 64.1183C83.6709 65.2784 83.5655 67.3094 83.7764 69.649C83.8428 70.3716 83.7881 71.1059 83.7881 72.0199V72.0238ZM77.8629 66.3056H60.4702V71.9808H77.8629V66.3056ZM95.4393 17.6544H89.7367V30.9421H95.4393V17.6544ZM31.0475 80.8666C31.0553 79.3043 29.782 77.9802 28.2197 77.9294C26.6065 77.8786 25.22 79.2144 25.2122 80.8315C25.2043 82.4485 26.5753 83.7999 28.1884 83.7686C29.7508 83.7374 31.0436 82.425 31.0514 80.8666H31.0475ZM88.2251 11.6004H96.5524C95.2283 10.2567 93.8066 8.8194 92.4552 7.44454C91.1389 8.73737 89.725 10.1279 88.2251 11.6004Z" fill="white"/>
<path d="M123.335 0C124.405 0.453078 125.549 0.781169 126.526 1.37876C130.049 3.53088 131.51 7.82341 130.135 11.7019C128.783 15.5179 124.971 17.9513 120.987 17.5411C116.89 17.1154 113.562 13.8111 113.117 9.71774C112.684 5.72987 115.078 1.92949 118.902 0.535101C119.402 0.355432 119.902 0.179669 120.402 0C121.378 0 122.354 0 123.331 0L123.335 0ZM124.788 8.84674C124.823 7.29221 123.561 5.94079 122.003 5.87048C120.394 5.79627 118.984 7.11254 118.952 8.72566C118.921 10.2841 120.179 11.6316 121.737 11.7058C123.347 11.7839 124.753 10.4638 124.788 8.84674Z" fill="white"/>
<path d="M149.992 33.102C148.781 35.633 146.399 35.1018 144.133 35.1838C144.133 35.7463 144.133 36.2228 144.133 36.6954C144.126 39.6091 143.149 41.027 141.165 40.9996C139.224 40.9723 138.279 39.5935 138.275 36.7657C138.275 36.2853 138.275 35.8088 138.275 35.1448C137.267 35.1448 136.357 35.176 135.447 35.137C133.67 35.0666 132.428 33.8441 132.428 32.2115C132.428 30.5827 133.674 29.3641 135.455 29.2977C136.326 29.2626 137.201 29.2938 138.279 29.2938C138.279 28.3134 138.251 27.4034 138.282 26.4972C138.345 24.7123 139.544 23.4624 141.169 23.4429C142.794 23.4233 144.044 24.6693 144.122 26.4308C144.161 27.3057 144.13 28.1845 144.13 29.2548C146.289 29.3915 148.781 28.7392 149.992 31.3405V33.0981V33.102Z" fill="white"/>
<path d="M0.00775065 62.3959C1.21466 59.8571 3.59722 60.3883 5.86652 60.3141C5.86652 59.4118 5.8548 58.5955 5.86652 57.7792C5.90167 55.795 7.09295 54.4749 8.82324 54.4983C10.5496 54.5178 11.6901 55.8302 11.7175 57.8456C11.7292 58.619 11.7175 59.3923 11.7175 60.3492C12.7213 60.3492 13.6313 60.3219 14.5375 60.3571C16.3107 60.4235 17.5645 61.646 17.5645 63.2708C17.5645 64.8957 16.3147 66.1221 14.5453 66.1963C13.6743 66.2314 12.7994 66.2041 11.7175 66.2041C11.7175 66.9423 11.7175 67.6024 11.7175 68.2625C11.7097 70.6646 10.6668 72.0316 8.82324 72.0551C6.97187 72.0785 5.86652 70.6919 5.85871 68.3367C5.85871 67.704 5.85871 67.0712 5.85871 66.2471C3.70268 66.1065 1.21075 66.7626 -6.10352e-05 64.1614V62.4037L0.00775065 62.3959Z" fill="white"/>
<path d="M113.074 107.212C113.074 108.301 113.113 109.219 113.066 110.133C112.98 111.82 111.77 113.035 110.199 113.062C108.575 113.09 107.309 111.844 107.231 110.09C107.192 109.176 107.223 108.262 107.223 107.212C106.165 107.212 105.247 107.247 104.333 107.204C102.575 107.122 101.337 105.856 101.368 104.227C101.4 102.653 102.61 101.454 104.302 101.372C105.216 101.329 106.133 101.364 107.219 101.364C107.219 100.337 107.188 99.4233 107.227 98.5132C107.297 96.7478 108.539 95.5018 110.164 95.5135C111.789 95.5252 113 96.7751 113.066 98.5562C113.098 99.4272 113.07 100.298 113.07 101.364C114.062 101.364 114.972 101.337 115.882 101.368C117.66 101.435 118.913 102.646 118.921 104.27C118.929 105.895 117.683 107.133 115.914 107.208C115.039 107.243 114.164 107.215 113.066 107.215L113.074 107.212Z" fill="white"/>
<path d="M127.744 95.4862C126.127 95.494 124.78 94.127 124.811 92.51C124.842 90.9476 126.151 89.6587 127.713 89.647C129.33 89.6353 130.682 91.0062 130.647 92.6193C130.615 94.1778 129.303 95.4745 127.744 95.4823V95.4862Z" fill="white"/>
<path d="M16.4592 95.5096C18.0176 95.537 19.3183 96.8415 19.33 98.4039C19.3456 100.021 17.9786 101.376 16.3654 101.349C14.7484 101.322 13.4282 99.9232 13.4946 98.3101C13.561 96.7517 14.9008 95.4862 16.4592 95.5135V95.5096Z" fill="white"/>
<path d="M42.7651 28.0518C42.8041 29.6649 41.4566 31.0436 39.8435 31.0397C38.2851 31.0397 36.9688 29.7508 36.9297 28.1885C36.8907 26.5715 38.2343 25.2005 39.8513 25.2005C41.4097 25.2005 42.7299 26.4894 42.7651 28.0479V28.0518Z" fill="white"/>
</svg>
