<svg width="169" height="169" viewBox="0 0 169 169" fill="none" xmlns="http://www.w3.org/2000/svg">
<path d="M19.5794 169C15.8973 168.231 12.4136 167.016 9.33898 164.75C2.04916 159.38 -1.45524 150.193 0.565577 141.611C2.7145 132.474 9.81836 125.706 18.8976 124.152C20.9432 123.8 22.4805 124.697 22.8318 126.446C23.1376 127.98 22.1499 129.406 20.2117 129.824C16.5255 130.618 13.2401 132.098 10.6035 134.868C3.16082 142.681 4.66093 155.233 14.2071 160.922C17.0297 162.604 20.0877 163.295 23.3318 163.295C60.4215 163.299 97.5152 163.324 134.605 163.282C148.3 163.266 159.446 154.72 162.442 141.553C164.946 130.539 161.582 121.187 153.135 113.688C152.561 113.179 151.92 112.741 151.354 112.224C149.995 110.976 149.804 109.405 150.817 108.123C151.825 106.85 153.47 106.622 154.937 107.685C158.437 110.232 161.392 113.303 163.723 116.962C166.326 121.051 167.959 125.499 168.719 130.279C168.777 130.651 168.905 131.014 169 131.382V138.973C168.905 139.395 168.789 139.816 168.711 140.242C166.368 153.17 159.119 162.133 146.903 166.941C144.383 167.933 141.63 168.33 138.985 169H19.5794Z" fill="white"/>
<path d="M78.77 90.6889C78.365 104.952 73.9225 116.941 64.0292 126.673C63.1655 127.521 62.3431 128.41 61.4505 129.228C59.9545 130.601 58.2395 130.642 57.0575 129.39C55.9128 128.178 56.0037 126.587 57.3262 125.111C59.9627 122.167 62.8762 119.43 65.1863 116.251C69.6329 110.132 71.8893 103.121 72.6745 95.5963C73.4596 88.043 72.3397 80.8205 69.323 73.8749C67.2815 69.1743 64.3308 65.0979 60.7314 61.4846C50.4083 51.1283 40.081 40.772 29.6918 30.4818C28.7702 29.5723 27.4437 28.824 26.1874 28.5511C23.6707 28.0054 21.4763 29.2333 20.4059 31.35C19.3108 33.5163 19.7447 36.0589 21.6664 37.9937C27.204 43.575 32.7705 49.1232 38.3206 54.692C38.7834 55.1592 39.2586 55.6305 39.6223 56.1721C40.4075 57.3338 40.2174 58.8387 39.2421 59.7937C38.3371 60.6784 36.8576 60.8644 35.7501 60.1492C35.2046 59.7978 34.7211 59.3306 34.2541 58.8676C31.3283 55.9612 28.419 53.0424 25.5055 50.1236C24.0467 48.6643 22.2987 47.9862 20.2613 48.3997C16.1907 49.2224 14.4923 53.8403 17.0173 57.1519C17.414 57.6728 17.8934 58.1358 18.3603 58.603C23.6831 63.9321 29.0099 69.257 34.3285 74.586C34.7914 75.0491 35.2666 75.5245 35.6303 76.0661C36.4361 77.265 36.2667 78.6996 35.279 79.6794C34.2872 80.6634 32.8863 80.8122 31.6672 79.9936C31.1712 79.6588 30.7373 79.2247 30.3075 78.803C27.3858 75.8925 24.4724 72.9737 21.5589 70.059C20.2076 68.7071 18.6083 67.9216 16.666 68.2027C14.4799 68.5211 12.8888 69.7241 12.1656 71.8368C11.4011 74.0692 11.959 76.0702 13.6162 77.7363C18.2322 82.3708 22.8648 86.9929 27.4891 91.6192C28.576 92.7065 29.6753 93.7855 30.7497 94.8894C31.1299 95.2821 31.4977 95.7038 31.7705 96.171C32.4565 97.3451 32.2498 98.7342 31.2456 99.6313C30.2456 100.528 29.0926 100.752 27.9107 100.041C27.3073 99.6809 26.7825 99.1724 26.2783 98.6722C22.6541 95.0671 19.0505 91.4414 15.4221 87.8363C13.7401 86.1619 11.7028 85.765 9.49601 86.4803C7.42147 87.15 6.11558 88.6962 5.99987 90.8295C5.92962 92.1111 6.47925 93.4589 6.9049 94.7198C7.0826 95.249 7.64463 95.6625 8.07028 96.0883C24.2327 112.27 40.4034 128.439 56.5575 144.624C58.2188 146.286 60.0826 147.25 62.4753 146.634C66.3723 145.629 67.9179 141.197 65.4673 138.01C64.8019 137.141 63.9424 136.43 63.215 135.603C61.9422 134.161 61.9257 132.499 63.1283 131.333C64.2689 130.229 65.9219 130.241 67.2815 131.461C70.3768 134.227 72.6869 137.402 72.4182 141.842C72.1455 146.357 69.9718 149.689 65.9053 151.587C61.9133 153.451 57.9998 153.017 54.3879 150.445C53.6771 149.941 53.0324 149.321 52.4126 148.701C36.2791 132.573 20.158 116.429 4.01624 100.305C0.487046 96.7787 -0.938685 92.7106 0.697806 87.857C1.79293 84.6075 3.99972 82.3088 7.21071 81.0809C8.21905 80.6923 8.25624 80.4071 7.71488 79.5017C4.06997 73.4119 6.41313 66.1315 12.9591 63.2871C14.2154 62.7414 13.9261 62.4561 13.2318 61.6665C7.62396 55.3287 9.44229 46.6385 17.1123 43.2856C18.3066 42.7647 17.819 42.4877 17.2941 41.8882C13.5087 37.5721 12.9095 32.706 15.5543 28.0715C18.8149 22.358 26.7949 20.7332 32.0143 24.7476C32.8408 25.3801 33.6136 26.0954 34.3492 26.8313C44.3045 36.7783 54.2185 46.7666 64.2151 56.6723C71.8438 64.2339 76.6045 73.2383 78.1997 83.8633C78.5675 86.2984 78.6088 88.7831 78.7617 90.6889H78.77Z" fill="white"/>
<path d="M104.317 56.2961C120.657 57.1643 134.762 66.0157 142.837 83.6111C147.16 93.0372 147.742 103.005 145.019 113.08C144.564 114.759 143.403 115.668 141.994 115.581C140.758 115.507 139.527 114.511 139.349 113.245C139.254 112.567 139.386 111.827 139.543 111.145C141.469 102.889 141.188 94.7364 137.886 86.8978C132.295 73.6186 122.377 65.4535 108.169 62.7827C98.478 60.9595 89.403 62.853 80.9519 67.8803C80.4353 68.1862 79.8898 68.4963 79.3195 68.6451C78.0674 68.9717 77.0136 68.5211 76.3028 67.4792C75.5506 66.3671 75.5878 65.1765 76.4143 64.1057C76.7408 63.684 77.2078 63.345 77.6706 63.0639C84.9522 58.5823 92.8743 56.3126 104.317 56.3002V56.2961Z" fill="white"/>
<path d="M53.5821 28.1088C52.3795 28.6835 51.1893 29.2995 49.962 29.8163C49.0859 30.1842 48.0569 30.7961 47.2675 30.6018C46.4121 30.3909 45.4947 29.5021 45.0732 28.6711C44.5111 27.559 45.0897 26.4468 45.9947 25.5745C49.8132 21.8868 56.1401 21.4775 60.3884 24.6898C61.1736 25.2851 61.9092 25.9549 62.6076 26.6536C69.8065 33.8389 76.993 41.0325 84.1754 48.2344C84.6382 48.6974 85.1176 49.1728 85.4813 49.7103C86.2706 50.8762 86.0887 52.3728 85.1217 53.3319C84.1134 54.3324 82.7372 54.473 81.514 53.6337C80.9768 53.2658 80.5057 52.7862 80.0428 52.3231C72.8108 45.0965 65.5789 37.8657 58.3635 30.6224C57.0741 29.3284 55.6649 28.3693 53.7433 28.4602C53.6895 28.3445 53.6399 28.2287 53.5862 28.1129L53.5821 28.1088Z" fill="white"/>
<path d="M126.96 0C128.08 0.0661481 129.08 0.673883 129.46 1.97617C129.687 2.74928 129.741 3.5968 129.728 4.40711C129.712 5.35386 130.088 5.68046 130.997 5.61018C131.592 5.56471 132.212 5.57297 132.799 5.66806C134.249 5.89958 135.303 7.13572 135.303 8.50829C135.303 9.95942 134.163 11.1749 132.63 11.3527C131.72 11.456 130.547 11.2452 129.985 11.7371C129.514 12.1506 129.803 13.3867 129.671 14.2466C129.402 16.0161 128.311 17 126.732 16.9794C125.174 16.9587 124.116 15.9334 123.864 14.1598C123.74 13.3082 123.972 12.1382 123.497 11.6751C123.017 11.208 121.856 11.4477 120.996 11.3609C119.443 11.208 118.306 10.0504 118.256 8.58684C118.211 7.15226 119.31 5.86651 120.843 5.65152C121.753 5.52336 122.988 5.82103 123.501 5.32492C124.009 4.83294 123.753 3.58853 123.906 2.68313C124.187 1.01703 125.269 0.0248055 126.964 0.00413425L126.96 0Z" fill="white"/>
<path d="M135.431 100.384C135.312 101.078 135.283 101.81 135.051 102.467C134.621 103.683 133.625 104.303 132.386 104.295C131.142 104.287 130.15 103.637 129.749 102.422C129.497 101.657 129.419 100.81 129.381 99.9952C129.208 95.7576 128.067 91.8011 126.051 88.0803C125.584 87.2162 125.079 86.3563 124.724 85.4426C124.236 84.1817 124.728 82.8629 125.832 82.1394C126.943 81.4076 128.311 81.4944 129.315 82.4246C129.671 82.7554 129.968 83.1647 130.224 83.5781C133.431 88.7128 135.055 94.3354 135.431 100.384Z" fill="white"/>
<path d="M20.2324 8.32639C19.6952 9.28967 19.4555 10.377 18.9472 10.5217C16.8066 11.1253 16.728 14.3376 14.1824 14.1846C13.4799 14.1433 12.331 13.7464 12.2029 13.2875C11.6119 11.1377 8.34309 11.0798 8.55798 8.49176C8.61584 7.7848 8.97124 6.63548 9.42169 6.50732C11.5541 5.89545 11.6533 2.57151 14.2361 2.89398C15.1287 3.00561 16.1123 3.73324 16.6991 4.465C17.162 5.04793 17.5297 5.5399 18.191 5.97814C19.0175 6.52386 19.5506 7.50781 20.2324 8.33053V8.32639Z" fill="white"/>
<path d="M154.867 47.9738C153.623 47.9201 152.858 47.2503 152.251 46.2374C151.953 45.7413 151.499 45.2535 150.995 44.9765C149.879 44.3605 149.213 43.4758 149.234 42.2314C149.255 41.0614 149.899 40.2138 150.953 39.6268C151.457 39.3456 151.937 38.8826 152.226 38.3865C152.858 37.3075 153.664 36.6005 154.958 36.6212C156.177 36.6377 156.958 37.2951 157.561 38.3245C157.859 38.833 158.322 39.3208 158.83 39.6102C159.933 40.2345 160.586 41.0738 160.57 42.3554C160.553 43.5708 159.896 44.3605 158.871 44.9641C158.363 45.2659 157.867 45.7207 157.582 46.225C156.958 47.3248 156.127 47.9697 154.863 47.9738H154.867Z" fill="white"/>
</svg>
