<svg width="47" height="45" viewBox="0 0 47 45" fill="none" xmlns="http://www.w3.org/2000/svg">
<path d="M20.6383 2.09579C21.5191 -0.7038 25.481 -0.703805 26.3618 2.09578L29.6872 12.6658C30.0803 13.9155 31.2388 14.7655 32.5489 14.7655H43.5108C46.3934 14.7655 47.6171 18.4349 45.3113 20.1651L36.2782 26.9432C35.2605 27.7068 34.8352 29.0294 35.217 30.2431L38.6278 41.0845C39.5027 43.8655 36.2975 46.1342 33.9655 44.3844L25.3006 37.8825C24.2337 37.082 22.7664 37.082 21.6995 37.8825L13.0346 44.3844C10.7026 46.1342 7.49736 43.8655 8.37229 41.0845L11.783 30.2431C12.1649 29.0294 11.7396 27.7068 10.7219 26.9432L1.68878 20.1651C-0.616962 18.4349 0.606655 14.7655 3.48934 14.7655H14.4512C15.7613 14.7655 16.9198 13.9155 17.3129 12.6658L20.6383 2.09579Z" fill="#FFE037"/>
<path d="M24 37.2873V-0.000458318C25.0307 0.166283 25.9823 0.852806 26.3618 2.05911L29.6872 12.6291C30.0803 13.8788 31.2388 14.7288 32.5489 14.7288H43.5108C46.3934 14.7288 47.6171 18.3983 45.3113 20.1284L36.2782 26.9065C35.2605 27.6702 34.8352 28.9927 35.217 30.2064L38.6278 41.0478C39.5027 43.8289 36.2975 46.0975 33.9655 44.3477L25.3006 37.8459C24.908 37.5513 24.4612 37.3651 24 37.2873Z" fill="#8090E7"/>
</svg>
